<svg id="Layer_1" data-name="Layer 1" xmlns="http://www.w3.org/2000/svg" xmlns:xlink="http://www.w3.org/1999/xlink" viewBox="0 0 279.84 118.11"><defs><style>.cls-1{fill:none;}.cls-2,.cls-9{fill:#fff;}.cls-3{fill:#c8102e;}.cls-4{fill:#012169;}.cls-10,.cls-5{fill:#bf0a30;}.cls-6{clip-path:url(#clip-path);}.cls-7{clip-path:url(#clip-path-2);}.cls-12,.cls-8{fill:#002868;}.cls-10,.cls-8,.cls-9{fill-rule:evenodd;}.cls-11{clip-path:url(#clip-path-3);}</style><clipPath id="clip-path" transform="translate(-2.26 -15)"><path id="SVGID" class="cls-1" d="M57.34,35.47a34.78,34.78,0,0,1,25.43,11.3A40.06,40.06,0,0,1,93.3,74.05c0,21.3-16.1,38.57-36,38.57s-36-17.27-36-38.57A40.06,40.06,0,0,1,31.91,46.77,34.8,34.8,0,0,1,57.34,35.47Z"/></clipPath><clipPath id="clip-path-2" transform="translate(-2.26 -15)"><polygon id="SVGID-2" data-name="SVGID" class="cls-1" points="91.22 99.52 111.56 77.71 121.73 88.61 101.39 110.43 91.22 99.52"/></clipPath><clipPath id="clip-path-3" transform="translate(-2.26 -15)"><ellipse id="SVGID-3" data-name="SVGID" class="cls-1" cx="192.91" cy="74.05" rx="35.96" ry="38.58"/></clipPath></defs><path class="cls-2" d="M127.33,58.15,143.06,75l-3.41,3.66c-5.25-5.55-10.55-10.12-15.73-16.88Z" transform="translate(-2.26 -15)"/><path class="cls-3" d="M7.06,74.06c0,.87,0,1.73.06,2.59s.09,1.72.17,2.58.17,1.72.29,2.58.25,1.71.4,2.56.33,1.69.52,2.54.4,1.68.63,2.51.48,1.67.75,2.49.56,1.64.86,2.46.64,1.61,1,2.41.71,1.59,1.09,2.37.79,1.56,1.21,2.33.86,1.52,1.32,2.27.94,1.48,1.44,2.21,1,1.45,1.55,2.15,1.1,1.4,1.67,2.09,1.17,1.35,1.78,2,1.24,1.29,1.88,1.91,1.28,1.21,1.94,1.79,1.33,1.13,2,1.66,1.36,1.05,2.06,1.55,1.4,1,2.12,1.41,1.44.89,2.17,1.3,1.46.8,2.21,1.17,1.49.72,2.25,1,1.52.64,2.29.93,1.54.55,2.32.8,1.56.47,2.35.68,1.57.39,2.37.55,1.59.31,2.38.43,1.6.23,2.41.31,1.6.15,2.41.19,1.6.06,2.41.06,1.61,0,2.41-.06,1.61-.11,2.41-.19,1.61-.18,2.41-.31,1.59-.26,2.38-.43,1.59-.35,2.37-.55,1.57-.44,2.35-.68,1.55-.52,2.32-.8,1.53-.6,2.29-.93,1.51-.68,2.25-1,1.48-.76,2.21-1.17,1.46-.84,2.17-1.3,1.42-.92,2.12-1.41,1.38-1,2.06-1.55,1.35-1.09,2-1.66,1.3-1.17,1.94-1.79,1.26-1.25,1.88-1.91l32.17-34.52h0l3.39-3.63h0l-3.4-3.65h0s-23.29-25-32.17-34.52c-.62-.65-1.24-1.29-1.88-1.91s-1.28-1.21-1.94-1.79-1.33-1.13-2-1.66S85.74,29.47,85.05,29s-1.41-1-2.12-1.41-1.44-.89-2.17-1.3-1.47-.8-2.22-1.17-1.49-.72-2.25-1.05-1.52-.64-2.29-.93-1.54-.55-2.32-.8-1.56-.47-2.35-.68-1.58-.39-2.37-.55-1.59-.31-2.39-.43-1.6-.23-2.4-.31-1.61-.15-2.41-.19-1.61-.06-2.42-.06-1.61,0-2.41.06-1.61.1-2.41.19-1.6.18-2.4.31-1.59.26-2.39.43-1.58.35-2.36.55-1.57.43-2.35.68-1.55.52-2.32.8-1.53.6-2.29.93-1.5.68-2.25,1.05-1.48.76-2.21,1.17-1.45.84-2.16,1.3-1.42.92-2.12,1.41-1.39,1-2.06,1.55-1.35,1.09-2,1.66S24.29,33.35,23.66,34s-1.26,1.26-1.88,1.91-1.2,1.33-1.78,2S18.87,39.27,18.33,40s-1,1.42-1.55,2.15-1,1.47-1.44,2.22-.9,1.5-1.32,2.27S13.2,48.16,12.81,49s-.75,1.57-1.09,2.37-.67,1.61-1,2.42-.59,1.63-.86,2.46-.52,1.65-.75,2.49-.44,1.68-.63,2.52S8.13,62.9,8,63.75s-.29,1.71-.4,2.56S7.37,68,7.29,68.89s-.13,1.72-.17,2.58S7.06,73.2,7.06,74.06Zm4.77,0q0-1.17.06-2.34T12,69.38c.07-.78.16-1.55.26-2.33s.23-1.54.37-2.31.29-1.54.47-2.3.36-1.52.57-2.28.44-1.51.68-2.25.5-1.49.78-2.22.58-1.46.89-2.19.64-1.44,1-2.14.71-1.41,1.09-2.11.79-1.38,1.2-2,.86-1.35,1.31-2,.92-1.31,1.41-1.95,1-1.27,1.51-1.88,1.06-1.23,1.61-1.83,1.13-1.17,1.7-1.73,1.17-1.1,1.76-1.62,1.2-1,1.82-1.51,1.23-1,1.87-1.4,1.26-.88,1.91-1.29,1.3-.8,2-1.17,1.33-.73,2-1.07,1.35-.65,2-.95,1.38-.58,2.07-.84,1.39-.5,2.1-.72,1.41-.43,2.12-.62,1.42-.35,2.14-.5,1.43-.28,2.16-.4,1.44-.2,2.16-.28,1.46-.13,2.18-.16,1.46-.06,2.18-.06,1.46,0,2.19.06,1.45.09,2.18.16,1.44.17,2.17.28,1.44.25,2.16.4,1.43.31,2.14.5,1.42.39,2.12.62,1.4.46,2.1.72,1.38.54,2.07.84,1.36.62,2,.95,1.34.69,2,1.07,1.32.76,2,1.17,1.29.84,1.92,1.29,1.25.91,1.87,1.4,1.22,1,1.82,1.51,1.18,1.06,1.76,1.62,1.14,1.13,1.7,1.73l32.19,34.53L89.54,108.59c-.56.6-1.13,1.18-1.7,1.74s-1.17,1.1-1.76,1.62-1.21,1-1.82,1.51-1.24,1-1.87,1.4-1.27.87-1.92,1.28-1.3.81-2,1.18-1.32.73-2,1.06-1.35.65-2,1-1.38.58-2.07.84-1.4.5-2.1.73-1.41.43-2.12.61-1.43.36-2.14.51-1.44.28-2.16.39-1.45.2-2.17.28-1.45.13-2.18.17-1.45,0-2.18,0-1.46,0-2.18,0-1.45-.1-2.18-.17-1.45-.17-2.17-.28-1.44-.24-2.16-.39-1.43-.32-2.14-.51-1.42-.39-2.12-.61-1.4-.47-2.1-.73-1.38-.54-2.07-.84-1.36-.61-2-1-1.34-.69-2-1.06-1.32-.77-2-1.18-1.29-.83-1.92-1.28-1.26-.92-1.87-1.4-1.22-1-1.82-1.51-1.18-1.06-1.76-1.62-1.14-1.14-1.7-1.74-1.09-1.2-1.61-1.82-1-1.25-1.51-1.89-1-1.29-1.41-1.95-.89-1.32-1.31-2-.81-1.36-1.2-2.06-.74-1.39-1.09-2.1-.68-1.42-1-2.15-.61-1.45-.89-2.18-.54-1.48-.78-2.22-.47-1.5-.68-2.25-.4-1.52-.57-2.28-.33-1.53-.47-2.3-.26-1.54-.37-2.32-.19-1.55-.26-2.33-.12-1.55-.15-2.33S11.83,74.84,11.83,74.06Z" transform="translate(-2.26 -15)"/><path class="cls-2" d="M6.09,74.51h0c0,.73,0,1.46.05,2.18q.06,1.32.18,2.64c.08.87.17,1.75.29,2.62s.26,1.74.41,2.61H7c.16.86.33,1.73.53,2.59s.41,1.71.64,2.56.49,1.7.77,2.54.56,1.67.88,2.5.64,1.65,1,2.46.73,1.62,1.12,2.42h0q.58,1.2,1.23,2.37t1.35,2.31c.47.76,1,1.52,1.46,2.26s1,1.47,1.58,2.19,1.12,1.43,1.7,2.12h0c.59.7,1.2,1.38,1.82,2s1.26,1.32,1.91,2,1.31,1.24,2,1.82,1.35,1.16,2.05,1.7,1.39,1.07,2.1,1.57h0c.71.51,1.43,1,2.16,1.45s1.46.9,2.21,1.32,1.49.82,2.25,1.19h0c.76.38,1.53.74,2.3,1.07s1.55.65,2.33.95,1.57.56,2.37.81,1.59.49,2.39.7,1.6.39,2.41.56,1.62.31,2.44.44h0c.81.13,1.63.23,2.44.31h0c.82.09,1.64.15,2.46.19h0c.82.05,1.64.07,2.46.07s1.64,0,2.46-.07,1.64-.1,2.46-.19,1.63-.18,2.44-.31h0c.82-.13,1.63-.27,2.44-.44s1.61-.36,2.41-.57,1.6-.44,2.39-.69,1.58-.52,2.37-.81,1.56-.61,2.33-.95,1.54-.69,2.3-1.07,1.51-.77,2.25-1.19,1.48-.86,2.21-1.32,1.45-.94,2.16-1.45,1.41-1,2.1-1.57,1.38-1.11,2-1.7,1.33-1.19,2-1.82,1.28-1.28,1.91-2l32.17-34.51,3.38-3.62.73-.74-4.11-4.4L93.62,35.15c-.63-.67-1.26-1.32-1.91-1.95s-1.31-1.23-2-1.82-1.36-1.15-2-1.7-1.39-1.07-2.1-1.57-1.43-1-2.16-1.45h0c-.73-.46-1.47-.9-2.21-1.32h0c-.75-.42-1.5-.81-2.26-1.19s-1.53-.73-2.3-1.07-1.55-.65-2.33-.94-1.58-.57-2.37-.82-1.59-.48-2.39-.69-1.61-.4-2.42-.57-1.62-.31-2.43-.44h0c-.82-.13-1.63-.23-2.45-.31h0c-.82-.09-1.63-.15-2.45-.19h0c-.82,0-1.64-.07-2.46-.07s-1.65,0-2.47.07h0c-.82,0-1.64.1-2.46.19s-1.63.18-2.45.31h0c-.81.13-1.62.27-2.43.44s-1.61.36-2.41.57-1.6.44-2.39.69-1.58.52-2.37.82-1.56.6-2.33.94-1.53.69-2.29,1.07-1.51.77-2.26,1.19h0c-.74.42-1.48.86-2.2,1.32s-1.45.95-2.16,1.45-1.41,1-2.1,1.57h0c-.7.55-1.38,1.11-2.05,1.7s-1.33,1.19-2,1.82h0c-.65.63-1.28,1.28-1.91,1.95s-1.23,1.36-1.81,2.05-1.16,1.41-1.7,2.13h0q-.82,1.08-1.59,2.19c-.5.74-1,1.5-1.46,2.26s-.92,1.53-1.35,2.32h0q-.64,1.17-1.23,2.37c-.39.8-.76,1.6-1.11,2.42s-.69,1.64-1,2.46S9.24,55,9,55.86s-.53,1.69-.76,2.54S7.76,60.1,7.56,61s-.37,1.73-.53,2.6-.29,1.73-.41,2.61h0c-.11.87-.21,1.74-.29,2.62s-.14,1.76-.18,2.64-.05,1.75-.05,2.63ZM8,74.06v0c0-.84,0-1.68.05-2.52s.1-1.69.17-2.53.17-1.69.28-2.53.25-1.68.4-2.51.32-1.67.51-2.5.39-1.65.62-2.47.47-1.63.73-2.44.55-1.61.85-2.41.62-1.59,1-2.37.69-1.56,1.07-2.33.77-1.53,1.18-2.28.85-1.5,1.3-2.23.92-1.46,1.41-2.17,1-1.42,1.52-2.11h0c.53-.7,1.07-1.38,1.64-2s1.15-1.33,1.75-2,1.21-1.27,1.84-1.88h0c.62-.6,1.26-1.19,1.9-1.75s1.3-1.11,2-1.64,1.34-1,2-1.51,1.38-.95,2.08-1.39,1.41-.87,2.12-1.27,1.44-.79,2.17-1.15,1.46-.71,2.21-1,1.49-.63,2.24-.91,1.51-.54,2.27-.78,1.53-.47,2.3-.67,1.55-.38,2.33-.54,1.56-.31,2.34-.43h0c.78-.12,1.56-.22,2.35-.3s1.58-.14,2.36-.18h0c.78,0,1.57-.06,2.36-.06s1.58,0,2.37.06,1.58.1,2.37.18,1.57.18,2.35.3,1.57.26,2.35.43,1.55.34,2.32.54,1.54.42,2.3.67,1.53.5,2.28.78,1.5.59,2.25.91,1.48.67,2.21,1,1.45.75,2.17,1.15,1.42.83,2.13,1.27,1.39.91,2.07,1.39h0c.69.49,1.36,1,2,1.51s1.32,1.07,2,1.64,1.28,1.15,1.9,1.75,1.24,1.23,1.84,1.88L120.86,67.3l3.57,3.83,2.71,2.92L124.43,77h0L97.28,106.11l-5,5.37c-.6.64-1.21,1.27-1.84,1.87s-1.26,1.19-1.9,1.76-1.3,1.1-2,1.63h0c-.67.52-1.34,1-2,1.51h0c-.69.48-1.38,1-2.08,1.39s-1.41.87-2.13,1.27-1.44.79-2.17,1.15h0c-.73.36-1.46.71-2.2,1s-1.5.62-2.25.91-1.51.54-2.27.78h0c-.77.25-1.53.47-2.31.67s-1.54.38-2.32.54-1.56.31-2.34.43h0c-.78.12-1.57.22-2.36.3h0c-.78.08-1.57.14-2.36.18s-1.58.06-2.37.06-1.58,0-2.37-.06h0c-.79,0-1.57-.1-2.36-.18h0c-.79-.08-1.57-.18-2.36-.3h0c-.78-.12-1.56-.27-2.34-.43s-1.55-.34-2.32-.54-1.54-.42-2.3-.67h0q-1.16-.36-2.28-.78c-.75-.29-1.5-.59-2.24-.91s-1.48-.67-2.21-1-1.46-.74-2.17-1.15-1.43-.82-2.13-1.27-1.39-.91-2.07-1.39h0c-.69-.48-1.36-1-2-1.51s-1.32-1.07-2-1.64-1.28-1.14-1.9-1.75-1.24-1.23-1.84-1.88-1.19-1.3-1.75-2h0c-.56-.67-1.11-1.35-1.63-2h0c-.53-.69-1-1.4-1.53-2.11s-1-1.44-1.41-2.17-.88-1.48-1.29-2.23h0c-.42-.75-.81-1.51-1.19-2.28h0c-.37-.77-.73-1.54-1.07-2.32s-.66-1.58-1-2.37-.58-1.6-.85-2.41-.5-1.62-.73-2.44-.43-1.64-.62-2.47S9.08,85,8.93,84.17s-.28-1.67-.39-2.51S8.33,80,8.26,79.14s-.14-1.69-.17-2.54S8,74.91,8,74.06Zm2.84,0c0,.8,0,1.6.05,2.4s.09,1.59.16,2.38h0c.07.8.16,1.59.27,2.38s.23,1.58.37,2.37.3,1.57.48,2.34.37,1.56.58,2.33.45,1.54.7,2.3.51,1.52.8,2.27.58,1.49.9,2.23h0c.32.74.66,1.47,1,2.19s.73,1.44,1.12,2.15.8,1.41,1.23,2.1.87,1.38,1.33,2,.94,1.34,1.44,2,1,1.29,1.54,1.93,1.08,1.25,1.65,1.86,1.15,1.2,1.74,1.77,1.18,1.12,1.79,1.65,1.23,1,1.86,1.54,1.26,1,1.91,1.43,1.29.9,1.95,1.32,1.33.82,2,1.2h0q1,.57,2,1.08c.69.34,1.38.67,2.08,1s1.4.59,2.11.86,1.43.51,2.15.74,1.44.44,2.16.63,1.46.36,2.19.51,1.47.29,2.2.4h0c.74.12,1.48.21,2.22.29s1.48.13,2.22.17,1.49.06,2.23.06,1.48,0,2.23-.06,1.48-.1,2.22-.17h0c.74-.08,1.48-.17,2.22-.29s1.47-.24,2.2-.4,1.46-.32,2.19-.51,1.44-.4,2.16-.63,1.43-.47,2.14-.74,1.42-.55,2.12-.86,1.39-.63,2.08-1,1.37-.7,2-1.08h0c.68-.38,1.34-.78,2-1.2s1.32-.86,2-1.32,1.28-.93,1.91-1.43,1.25-1,1.85-1.54,1.21-1.08,1.8-1.65,1.17-1.16,1.74-1.77l5-5.4L122.41,74.8l.68-.74-.68-.73-3.58-3.85L90.22,38.8q-.85-.91-1.74-1.77c-.59-.57-1.19-1.12-1.8-1.66h0c-.6-.53-1.22-1-1.85-1.54h0c-.63-.5-1.26-1-1.91-1.43s-1.3-.89-2-1.31-1.33-.82-2-1.2-1.36-.75-2-1.09-1.38-.66-2.08-1h0c-.7-.3-1.4-.59-2.11-.86h0c-.71-.26-1.43-.51-2.15-.74s-1.44-.44-2.16-.63-1.46-.36-2.19-.51-1.47-.29-2.21-.4h0c-.73-.12-1.47-.21-2.21-.29h0c-.74-.07-1.49-.13-2.23-.17s-1.48-.06-2.23-.06-1.48,0-2.23.06-1.48.1-2.22.17h0c-.74.08-1.48.17-2.21.29h0c-.74.11-1.48.25-2.21.4s-1.46.32-2.18.51-1.45.4-2.17.63-1.43.48-2.14.74-1.41.56-2.11.86-1.39.63-2.08,1-1.37.71-2,1.09-1.34.78-2,1.2h0c-.66.42-1.31.86-2,1.31s-1.28.94-1.91,1.43-1.24,1-1.85,1.54h0c-.61.54-1.21,1.09-1.79,1.66h0q-.89.86-1.74,1.77t-1.65,1.86c-.53.63-1.05,1.27-1.54,1.93s-1,1.31-1.44,2-.91,1.35-1.33,2h0q-.64,1.05-1.23,2.1c-.39.71-.76,1.43-1.12,2.15s-.69,1.46-1,2.2h0c-.32.73-.62,1.48-.9,2.23s-.55,1.51-.8,2.27-.48,1.52-.7,2.3-.4,1.54-.58,2.32-.34,1.56-.48,2.35-.27,1.57-.37,2.36-.2,1.59-.27,2.38-.12,1.59-.16,2.39S10.87,73.27,10.87,74.06Zm1.93,0c0-.76,0-1.53,0-2.29s.09-1.53.15-2.29.16-1.52.26-2.28.22-1.51.36-2.27.29-1.5.46-2.25.35-1.49.56-2.22.42-1.48.66-2.21.5-1.45.77-2.17.56-1.43.86-2.14.63-1.41,1-2.1.7-1.38,1.08-2.06.76-1.35,1.17-2,.83-1.32,1.28-2,.9-1.29,1.37-1.91,1-1.24,1.48-1.85,1-1.2,1.59-1.79,1.1-1.15,1.66-1.69,1.14-1.08,1.72-1.59h0c.59-.51,1.18-1,1.78-1.48s1.21-.93,1.83-1.37,1.24-.86,1.87-1.26h0c.63-.4,1.27-.78,1.92-1.15s1.3-.71,2-1,1.32-.64,2-.93,1.34-.56,2-.82,1.36-.49,2.05-.71,1.38-.42,2.08-.6,1.39-.35,2.09-.5,1.41-.27,2.11-.38h0q1.06-.16,2.13-.27c.71-.08,1.42-.13,2.13-.17s1.42-.05,2.13-.05,1.43,0,2.14.05,1.42.09,2.13.17,1.42.16,2.13.27,1.41.24,2.11.38,1.4.31,2.1.5,1.39.38,2.07.6,1.38.46,2.06.71,1.35.53,2,.82,1.34.6,2,.93,1.31.68,2,1,1.29.75,1.92,1.15,1.26.82,1.88,1.26,1.22.9,1.82,1.37,1.2,1,1.78,1.48h0c.59.51,1.16,1,1.73,1.59s1.12,1.11,1.66,1.69l31.51,33.8-31.51,33.8c-.54.59-1.1,1.15-1.66,1.7s-1.14,1.08-1.73,1.59-1.17,1-1.77,1.47-1.22.94-1.83,1.37-1.25.86-1.88,1.26-1.27.79-1.92,1.15h0c-.64.37-1.3.71-2,1s-1.32.64-2,.93-1.34.57-2,.82-1.37.5-2.06.71-1.38.42-2.07.61-1.4.34-2.1.49-1.4.27-2.11.38h0c-.71.11-1.41.2-2.12.28h0c-.71.07-1.42.12-2.14.16s-1.42.05-2.13.05-1.43,0-2.14-.05-1.42-.09-2.13-.16-1.41-.17-2.12-.28h0c-.71-.11-1.41-.24-2.11-.38s-1.4-.31-2.1-.49-1.39-.39-2.08-.61-1.37-.45-2-.71-1.35-.53-2-.82-1.34-.6-2-.93-1.31-.67-2-1h0c-.64-.36-1.28-.75-1.91-1.15s-1.26-.82-1.88-1.26h0c-.62-.43-1.23-.89-1.83-1.37s-1.19-1-1.78-1.47h0c-.58-.51-1.15-1-1.72-1.59s-1.12-1.11-1.66-1.7-1.08-1.18-1.59-1.78-1-1.23-1.48-1.85-.93-1.26-1.37-1.91-.87-1.3-1.28-2-.8-1.34-1.17-2S18.24,97,17.9,96.29s-.66-1.4-1-2.1h0c-.3-.71-.59-1.42-.86-2.14s-.53-1.45-.77-2.18-.46-1.46-.66-2.2-.39-1.48-.56-2.23-.33-1.49-.46-2.25-.26-1.51-.36-2.26-.19-1.52-.26-2.28-.12-1.53-.15-2.29S12.8,74.83,12.8,74.06Z" transform="translate(-2.26 -15)"/><path class="cls-4" d="M121.73,74.06l-3.58-3.85L89.54,39.53c-.56-.59-1.13-1.17-1.7-1.73s-1.17-1.1-1.76-1.62-1.21-1-1.82-1.51-1.24-1-1.87-1.4-1.27-.88-1.92-1.29-1.3-.8-2-1.17-1.33-.73-2-1.07-1.36-.65-2-.95-1.38-.58-2.07-.84-1.4-.5-2.1-.72-1.41-.43-2.12-.62-1.43-.35-2.14-.5-1.44-.28-2.16-.4-1.45-.2-2.17-.28-1.46-.13-2.18-.16-1.46-.06-2.19-.06-1.45,0-2.18.06-1.45.09-2.18.16-1.44.17-2.16.28-1.45.25-2.16.4-1.43.31-2.14.5-1.42.39-2.12.62-1.4.46-2.1.72-1.38.54-2.07.84-1.36.62-2,.95-1.34.69-2,1.07-1.31.76-2,1.17-1.28.84-1.91,1.29-1.26.91-1.87,1.4-1.22,1-1.82,1.51-1.18,1.06-1.76,1.62-1.14,1.13-1.7,1.73-1.09,1.21-1.61,1.83-1,1.24-1.51,1.88-1,1.29-1.41,1.95-.89,1.33-1.31,2-.81,1.36-1.2,2-.74,1.4-1.09,2.11-.68,1.42-1,2.14-.61,1.45-.89,2.19-.54,1.47-.78,2.22-.47,1.5-.68,2.25-.4,1.51-.57,2.28-.33,1.53-.47,2.3-.26,1.54-.37,2.31-.19,1.55-.26,2.33-.12,1.56-.15,2.34-.06,1.56-.06,2.34,0,1.57.06,2.35S12,78,12,78.74s.16,1.56.26,2.33.23,1.55.37,2.32.29,1.54.47,2.3.36,1.52.57,2.28.44,1.5.68,2.25.5,1.48.78,2.22.58,1.46.89,2.18.64,1.44,1,2.15.71,1.41,1.09,2.1.79,1.38,1.2,2.06.86,1.35,1.31,2,.92,1.31,1.41,1.95,1,1.27,1.51,1.89,1.06,1.23,1.61,1.82,1.13,1.18,1.7,1.74,1.17,1.1,1.76,1.62,1.21,1,1.82,1.51,1.24,1,1.87,1.4,1.27.87,1.92,1.28,1.3.81,2,1.18,1.32.73,2,1.06,1.35.65,2,1,1.38.58,2.07.84,1.4.5,2.1.73,1.41.43,2.12.61,1.43.36,2.14.51,1.44.28,2.16.39,1.45.2,2.17.28,1.45.13,2.18.17,1.45,0,2.18,0,1.45,0,2.18,0,1.45-.1,2.18-.17,1.45-.17,2.17-.28,1.44-.24,2.16-.39,1.43-.32,2.14-.51,1.42-.39,2.12-.61,1.4-.47,2.1-.73,1.38-.54,2.07-.84,1.36-.61,2-1,1.34-.69,2-1.06,1.32-.77,2-1.18,1.29-.83,1.92-1.28,1.26-.92,1.87-1.4,1.22-1,1.82-1.51,1.18-1.06,1.76-1.62,1.14-1.14,1.7-1.74l5.07-5.43Zm-105.1,0A45.13,45.13,0,0,1,28.55,43.17a39.25,39.25,0,0,1,28.8-12.84h0A39.27,39.27,0,0,1,86.17,43.18L115,74.07l0,0h0c-3.38,20.12-18.11,20.83-23.74,25.42l-5,5.42a38.72,38.72,0,0,1-57.62,0A45.07,45.07,0,0,1,16.63,74.06Z" transform="translate(-2.26 -15)"/><path class="cls-4" d="M2.26,74.06a61.25,61.25,0,0,0,16.12,41.79c21.46,23,56.5,23,78,0l5-5.42c.76-.82,1.33-2.21,2.27-2.44l6.2-6.65a16.35,16.35,0,0,1,3.39-3.64l6.2-6.64c.51-1-.77-1.85.34-2.43-1.94,0-3-2.11-1.45-.8,1.07-1.15,5.57-1.55,6.77-2.84L135.3,74.07h0l-7.11-7-3.06-3.95L120,57.67,96.34,32.27a52.65,52.65,0,0,0-78,0A61.31,61.31,0,0,0,2.26,74.06Zm4.8,0c0-.86,0-1.72.06-2.59s.09-1.72.17-2.58.17-1.72.29-2.58.25-1.71.4-2.56.33-1.7.52-2.54.4-1.68.63-2.52.48-1.66.75-2.49.56-1.64.86-2.46.64-1.62,1-2.42.71-1.59,1.09-2.37.79-1.56,1.21-2.33.86-1.52,1.32-2.27.94-1.49,1.44-2.22,1-1.44,1.55-2.15,1.1-1.4,1.67-2.08,1.17-1.36,1.78-2S23,34.59,23.66,34s1.28-1.21,1.94-1.79,1.33-1.13,2-1.66S29,29.47,29.67,29s1.4-1,2.12-1.42,1.43-.89,2.16-1.3,1.47-.8,2.21-1.17,1.5-.72,2.25-1.05,1.52-.64,2.29-.93,1.54-.55,2.32-.8,1.56-.47,2.35-.68,1.57-.39,2.36-.55,1.59-.31,2.39-.43,1.6-.23,2.4-.31,1.61-.15,2.41-.19,1.61-.06,2.41-.06,1.61,0,2.42.06,1.61.11,2.41.19,1.6.18,2.4.31,1.6.26,2.39.43,1.58.35,2.37.55,1.57.44,2.35.68,1.55.52,2.32.8,1.53.6,2.29.93,1.51.68,2.25,1.05,1.49.76,2.22,1.17,1.45.84,2.17,1.3,1.42.92,2.12,1.42,1.38,1,2.06,1.54,1.35,1.09,2,1.66,1.3,1.18,1.94,1.79,1.26,1.26,1.88,1.91l28.6,30.69.2.22h0l6.77,7.26-3.4,3.64h0C104.38,99.93,101.58,103,98,106.79l-5.06,5.42c-.62.66-1.24,1.29-1.88,1.91s-1.28,1.21-1.94,1.79-1.33,1.13-2,1.66-1.36,1.05-2.06,1.55-1.4,1-2.12,1.42-1.44.88-2.17,1.29-1.46.8-2.21,1.17-1.49.72-2.25,1-1.52.64-2.29.93-1.54.55-2.32.8-1.56.47-2.35.68-1.57.39-2.37.55-1.59.31-2.38.43-1.6.23-2.41.31-1.6.15-2.41.19-1.6.06-2.41.06-1.61,0-2.41-.06-1.61-.11-2.41-.19-1.61-.18-2.41-.31-1.59-.26-2.38-.43-1.59-.35-2.37-.55-1.57-.44-2.35-.68-1.55-.52-2.32-.8-1.53-.6-2.29-.93-1.51-.68-2.25-1-1.48-.76-2.21-1.17-1.46-.84-2.17-1.29-1.42-.93-2.12-1.42-1.38-1-2.06-1.55-1.35-1.08-2-1.66-1.3-1.17-1.94-1.79-1.26-1.25-1.88-1.91-1.2-1.33-1.78-2-1.13-1.38-1.67-2.09-1-1.42-1.55-2.15-1-1.46-1.44-2.21-.9-1.51-1.32-2.27-.82-1.54-1.21-2.33-.74-1.57-1.09-2.37-.67-1.6-1-2.41-.59-1.63-.86-2.46-.52-1.65-.75-2.49-.44-1.67-.63-2.51S8.13,85.22,8,84.37s-.29-1.71-.4-2.56-.21-1.72-.29-2.58-.13-1.72-.17-2.58S7.06,74.93,7.06,74.06Z" transform="translate(-2.26 -15)"/><path class="cls-2" d="M123.93,91l-2.2-2.33a70,70,0,0,1-10.17-10.91l-5.1-5.5,3.38-3.63,4.92,5.26L120,79.51a41.79,41.79,0,0,1,7.16,7.64Z" transform="translate(-2.26 -15)"/><path class="cls-5" d="M234.73,73.05a46.29,46.29,0,0,0-12.24-30.72,39.79,39.79,0,0,0-59.18,0L134.54,73.2l-.59.6h0l-.24.23.82.87,28.78,30.88A40.55,40.55,0,0,0,192.45,119h.46a40.35,40.35,0,0,0,29.58-13.19,46.37,46.37,0,0,0,12.24-31.73Zm-1.11,1a45.11,45.11,0,0,1-11.91,30.89,39.28,39.28,0,0,1-28.8,12.85h0a39.29,39.29,0,0,1-28.82-12.84c-28.75-30.86-28.75-30.87-28.75-30.87h0s20.8-22.37,28.75-30.9a38.74,38.74,0,0,1,57.62,0A45.08,45.08,0,0,1,233.62,74.05Z" transform="translate(-2.26 -15)"/><path class="cls-2" d="M235.83,73h0a47.6,47.6,0,0,0-12.56-31.53,40.83,40.83,0,0,0-60.74,0L133.76,72.36l-.23.24L132.12,74l1.53,1.65.06.11,0,0h0l28.78,30.87A41.64,41.64,0,0,0,192,120.15h.91a41.42,41.42,0,0,0,30.36-13.54,47.59,47.59,0,0,0,12.56-32.56Zm-1.1,0v1a46.37,46.37,0,0,1-12.24,31.73A40.35,40.35,0,0,1,192.91,119h-.46a40.51,40.51,0,0,1-29.14-13.19L134.53,74.9l-.82-.87.24-.23h0l.59-.6,28.77-30.87a39.79,39.79,0,0,1,59.18,0A46.29,46.29,0,0,1,234.73,73.05Z" transform="translate(-2.26 -15)"/><path class="cls-5" d="M236.94,73v0h0a48.84,48.84,0,0,0-12.89-32.34,41.89,41.89,0,0,0-62.3,0L133,71.52l-.22.23L130.52,74l2.25,2.42.71,1.33.26-.29,28,30a42.84,42.84,0,0,0,29.79,13.89h1.37a42.47,42.47,0,0,0,31.14-13.89,48.86,48.86,0,0,0,12.89-33.4Zm-1.11,0v1a47.59,47.59,0,0,1-12.56,32.56,41.42,41.42,0,0,1-30.36,13.54H192a41.64,41.64,0,0,1-29.47-13.54L133.75,75.74h0l-.08-.09h0L132.12,74l1.41-1.39.23-.24,28.77-30.87a40.83,40.83,0,0,1,60.74,0A47.58,47.58,0,0,1,235.83,73Z" transform="translate(-2.26 -15)"/><path class="cls-2" d="M238.05,73v0h0v0a50,50,0,0,0-13.21-33.14,42.93,42.93,0,0,0-63.87,0L132.19,70.68l-.19.21-3.08,3,2.56,3.5,2.27,1.67L161,108.29a43.93,43.93,0,0,0,30.54,14.23h1.41a43.56,43.56,0,0,0,31.92-14.23A50.07,50.07,0,0,0,238,74.05Zm-1.11,0v1a48.86,48.86,0,0,1-12.89,33.4,42.47,42.47,0,0,1-31.14,13.89h-1.37a42.84,42.84,0,0,1-29.79-13.89l-29-31.08-1.35-1.45-.9-1,2.24-2.2.22-.23,28.77-30.87a41.89,41.89,0,0,1,62.3,0A48.84,48.84,0,0,1,236.94,73ZM133.73,74Z" transform="translate(-2.26 -15)"/><path class="cls-5" d="M239.15,73h0v0h0v0a51.3,51.3,0,0,0-13.54-34,44,44,0,0,0-65.43,0c-7.94,8.53-9.85,10.57-28.77,30.87l-.18.19-3.91,3.85,3.78,4.05,1.87,2,27.21,29.19a45,45,0,0,0,31.29,14.58h1.44a44.62,44.62,0,0,0,32.7-14.59A51.32,51.32,0,0,0,239.15,74Zm-1.1,0v1a50.07,50.07,0,0,1-13.21,34.24,43.56,43.56,0,0,1-31.92,14.23H191.5A43.93,43.93,0,0,1,161,108.29l-27.21-29.2-1.87-2-3-3.17,3.08-3,.19-.21L161,39.82a42.93,42.93,0,0,1,63.87,0A50,50,0,0,1,238,73V73Z" transform="translate(-2.26 -15)"/><path class="cls-2" d="M240.26,73h0v0h0v0a52.48,52.48,0,0,0-13.86-34.77,45.06,45.06,0,0,0-67,0L130.63,69l-.16.17-4.74,4.67L130.07,79l2.11,1.78L159.4,110a46,46,0,0,0,32,14.93h1.48A45.71,45.71,0,0,0,226.39,110,52.63,52.63,0,0,0,240.26,74Zm-1.11,0V74a51.32,51.32,0,0,1-13.54,35.08,44.62,44.62,0,0,1-32.7,14.59h-1.44a45,45,0,0,1-31.29-14.58L133,79.93l-1.87-2-3.78-4.05L131.23,70l.18-.19C150.33,49.54,152.24,47.5,160.18,39a44,44,0,0,1,65.43,0,51.3,51.3,0,0,1,13.54,34v0h0Z" transform="translate(-2.26 -15)"/><path class="cls-5" d="M241.36,73h0v-.06h0a53.8,53.8,0,0,0-14.18-35.58,46.11,46.11,0,0,0-68.56,0L129.85,68.15l-.14.16-5.58,5.49,5.41,5.8,1.86,2,27.22,29.19a47.12,47.12,0,0,0,32.77,15.28h1.52a46.82,46.82,0,0,0,34.27-15.28A53.86,53.86,0,0,0,241.36,74Zm-1.1,0V74A52.63,52.63,0,0,1,226.39,110a45.71,45.71,0,0,1-33.48,14.93h-1.48a46,46,0,0,1-32-14.93L132.18,80.77l-1.86-2-4.59-4.93,4.74-4.67.16-.17L159.4,38.13a45.06,45.06,0,0,1,67,0A52.48,52.48,0,0,1,240.25,72.9v0h0Z" transform="translate(-2.26 -15)"/><path class="cls-2" d="M242.47,73h0v0h0v0h0v0A55,55,0,0,0,228,36.45a47.16,47.16,0,0,0-70.12,0L129.07,67.31l-.13.14-6.41,6.31,5.95,6.92,2.14,1.76,27.22,29.19a48.21,48.21,0,0,0,33.51,15.62h1.56A47.88,47.88,0,0,0,228,111.63,55.13,55.13,0,0,0,242.47,74Zm-1.11,0V74a53.86,53.86,0,0,1-14.18,36.75,46.82,46.82,0,0,1-34.27,15.28h-1.52a47.12,47.12,0,0,1-32.77-15.28L131.4,81.6l-1.86-2-5.41-5.8,5.58-5.49.14-.16,28.77-30.86a46.11,46.11,0,0,1,68.56,0,53.8,53.8,0,0,1,14.18,35.58h0V73Z" transform="translate(-2.26 -15)"/><path class="cls-5" d="M243.57,72.94v0h0v0h0v0h0v0a56.26,56.26,0,0,0-14.83-37.18,48.2,48.2,0,0,0-71.68,0L128.29,66.47l-.11.12-7.25,7.13,7,7.55,1.86,2,27.22,29.19a49.27,49.27,0,0,0,34.26,16h1.59a48.94,48.94,0,0,0,35.83-16A56.32,56.32,0,0,0,243.57,74Zm-1.1,0V74A55.13,55.13,0,0,1,228,111.63a47.88,47.88,0,0,1-35.05,15.62h-1.56a48.21,48.21,0,0,1-33.51-15.62L130.62,82.44l-1.86-2-6.23-6.68,6.41-6.31.13-.13,28.77-30.87a47.16,47.16,0,0,1,70.12,0,55,55,0,0,1,14.5,36.39v0h0v0h0Z" transform="translate(-2.26 -15)"/><path class="cls-2" d="M244.69,72.92h0v0h0v0h0v0h0v0l0-1.13h0a57.36,57.36,0,0,0-15.12-36.88,49.25,49.25,0,0,0-73.24,0L127.52,65.63h0l-.09.1-8.08,7.94c2.56,2.88,4.79,6.11,7.58,8.73l2.14,1.7,27.22,29.2a50.38,50.38,0,0,0,35,16.31h1.63a50,50,0,0,0,36.61-16.32A57.52,57.52,0,0,0,244.69,74Zm-1.11,0V74a56.32,56.32,0,0,1-14.83,38.43,48.93,48.93,0,0,1-35.83,16h-1.59a49.27,49.27,0,0,1-34.26-16L129.85,83.27l-1.86-2-7-7.55,7.24-7.13.11-.12,28.77-30.86a48.2,48.2,0,0,1,71.68,0,56.26,56.26,0,0,1,14.83,37.18v0h0v0h0v0Z" transform="translate(-2.26 -15)"/><path class="cls-5" d="M245.78,72.91v0h0v0h0v0h0v-.06l-.05-2.27A58.57,58.57,0,0,0,230.3,33.92a50.32,50.32,0,0,0-74.81,0c-7.94,8.53-9.84,10.57-28.77,30.86l-.07.08-8.91,8.77,8.67,9.3,1.87,2c16.25,17.44,19.7,21.13,27.21,29.2a51.45,51.45,0,0,0,35.75,16.66h1.67a51.09,51.09,0,0,0,37.39-16.67A58.76,58.76,0,0,0,245.78,74Zm-1.1,0V74a57.62,57.62,0,0,1-15.16,39.27,50,50,0,0,1-36.61,16.32h-1.63a50.36,50.36,0,0,1-35-16.31c-7.51-8.07-11-11.76-27.21-29.2l-1.87-2-7.85-8.43,8.07-7.94.1-.1h0l28.77-30.86a49.25,49.25,0,0,1,73.24,0,57.45,57.45,0,0,1,15.13,36.88l0,1.13v0h0v0h0v0h0Z" transform="translate(-2.26 -15)"/><path class="cls-2" d="M246.89,72.9v0h0v0h0v-.15l0-2.29v0a59.78,59.78,0,0,0-15.75-37.29,51.34,51.34,0,0,0-76.37,0L125.94,63.94l0,.06-9.75,9.59,9.49,10.17,1.87,2L154.71,115a52.53,52.53,0,0,0,36.5,17h1.7a52.14,52.14,0,0,0,38.17-17A60.06,60.06,0,0,0,246.89,74Zm-1.11,0V74a58.76,58.76,0,0,1-15.48,40.1,51.09,51.09,0,0,1-37.39,16.67h-1.67a51.45,51.45,0,0,1-35.75-16.66c-7.51-8.07-11-11.76-27.21-29.2l-1.87-2-8.67-9.3,8.91-8.77.07-.08c18.93-20.29,20.83-22.33,28.77-30.86a50.32,50.32,0,0,1,74.81,0,58.57,58.57,0,0,1,15.43,36.54l.05,2.27v.06h0v0h0v0h0Z" transform="translate(-2.26 -15)"/><path class="cls-5" d="M248,74.05a61.27,61.27,0,0,0-16.13-41.79c-21.45-23-56.49-23-78,0l-17.69,19c-.49,1.5-3.57,5.28-7.73,8.29l-3.36,3.6L115,74.05l0,0,0,0,5,5.49,1.71,1.84L125.14,85l28.78,30.88a52.63,52.63,0,0,0,78,0A61.3,61.3,0,0,0,248,74.05Zm-1.11-1.15V74A60.06,60.06,0,0,1,231.08,115a52.14,52.14,0,0,1-38.17,17h-1.7a52.48,52.48,0,0,1-36.5-17c-7.51-8.07-11-11.76-27.21-29.2l-1.87-2-9.49-10.17L125.89,64l0-.06,28.77-30.87a51.36,51.36,0,0,1,76.37,0,59.83,59.83,0,0,1,15.75,37.3v0l0,2.29v.15h0v0h0Z" transform="translate(-2.26 -15)"/><path class="cls-2" d="M124.11,75.15l-.68.73-5.28-5.67.68-.73Z" transform="translate(-2.26 -15)"/><g class="cls-6"><polygon class="cls-4" points="26.39 97.62 46.52 76.03 46.52 76.03 46.52 97.62 26.39 97.62"/><polygon class="cls-2" points="19.12 97.62 26.39 97.62 33.29 90.22 33.29 90.22 46.52 76.03 46.52 97.62 63.65 97.62 63.65 76.03 76.88 90.22 83.78 97.62 91.05 97.62 91.05 89.83 84.14 82.43 70.91 68.23 91.05 68.23 91.05 49.86 70.91 49.86 84.14 35.67 91.05 28.27 91.05 20.47 83.78 20.47 76.88 27.87 63.65 42.07 63.65 20.47 46.52 20.47 46.52 42.07 33.29 27.87 33.29 27.87 26.39 20.47 19.12 20.47 19.12 28.27 26.02 35.67 39.26 49.86 19.12 49.86 19.12 68.23 39.26 68.23 26.02 82.43 19.12 89.83 19.12 97.62"/><polygon class="cls-3" points="19.12 64.56 49.95 64.56 49.95 97.62 60.22 97.62 60.22 64.56 91.05 64.56 91.05 53.54 60.22 53.54 60.22 20.47 49.95 20.47 49.95 53.54 19.12 53.54 19.12 64.56"/><polygon class="cls-3" points="63.65 49.86 91.05 20.47 86.2 20.47 63.65 44.67 63.65 49.86"/><polygon class="cls-3" points="19.12 97.62 23.96 97.62 46.52 73.43 46.52 68.23 19.12 97.62"/><polygon class="cls-3" points="19.12 25.67 41.68 49.86 46.52 49.86 19.12 20.47 19.12 25.67"/><polygon class="cls-3" points="91.05 92.43 68.49 68.23 63.65 68.23 91.05 97.62 91.05 92.43"/><polygon class="cls-4" points="19.12 89.83 39.26 68.23 39.26 68.23 19.12 68.23 19.12 89.83"/><polygon class="cls-4" points="26.39 20.47 46.52 42.07 46.52 42.07 46.52 20.47 26.39 20.47"/><polygon class="cls-4" points="19.12 28.27 39.26 49.86 39.26 49.86 19.12 49.86 19.12 28.27"/><polygon class="cls-4" points="83.78 97.62 63.65 76.03 63.65 76.03 63.65 97.62 83.78 97.62"/><polygon class="cls-4" points="91.05 89.83 70.91 68.23 70.91 68.23 91.05 68.23 91.05 89.83"/><polygon class="cls-4" points="83.78 20.47 63.65 42.07 63.65 42.07 63.65 20.47 83.78 20.47"/><polygon class="cls-4" points="91.05 28.27 70.91 49.86 70.91 49.86 91.05 49.86 91.05 28.27"/></g><polygon class="cls-4" points="121.17 60.88 117.79 64.51 112.5 58.84 115.89 55.21 119.49 59.07 121.17 60.88"/><polygon class="cls-3" points="123.89 57.97 121.85 60.15 116.57 54.48 118.6 52.3 123.89 57.97"/><path class="cls-2" d="M126.82,72.24c-.68.73.65.7-.68.73l-5.28-5.67.68-.73Z" transform="translate(-2.26 -15)"/><polygon class="cls-2" points="136.14 62.34 133.08 59.08 122.67 47.94 123.28 41.35 140.75 60.1 136.14 62.34"/><path class="cls-4" d="M130.23,68.58a17.82,17.82,0,0,1-3.41,3.66l-5.28-5.67,3.39-3.63Z" transform="translate(-2.26 -15)"/><g class="cls-7"><polygon class="cls-4" points="90.1 85.74 96.86 83.33 96.86 83.33 92.35 88.16 90.1 85.74"/><path class="cls-2" d="M93.5,97.08c-1,.58-2.55,2.18-2.28,2.44l1.14,1.22,6.76-2.42-4.51,4.84L98,106.79l4.51-4.83-2.26,7.25,1.14,1.22c.76-.81,2-1.14,2.27-2.44l3.1-10,3.65,3.91,3.39-3.63-3.65-3.92,9.3-3.32a3.7,3.7,0,0,0,2.28-2.44h0l-1.14-1.22-6.76,2.41,4.57-4.9L115,81.27l-4.58,4.91,2.25-7.25c.34-.68-.94-2.18-1.13-1.22h0c-.76.81-1.92,1.2-2.28,2.44l-3.1,10-3.4-3.64-3.39,3.63,3.4,3.65Z" transform="translate(-2.26 -15)"/><polygon class="cls-3" points="98.11 74.71 102.18 79.07 92.99 88.93 95.03 91.11 104.22 81.25 108.28 85.61 110.32 83.43 106.25 79.07 115.4 69.25 113.37 67.07 104.22 76.89 100.15 72.52 98.11 74.71"/><polygon class="cls-3" points="109.3 77.25 119.47 73.61 118.71 72.8 110.82 75.62 109.3 77.25"/><polygon class="cls-3" points="102.52 84.52 99.13 95.43 100.65 93.81 104.04 82.9 102.52 84.52"/><polygon class="cls-3" points="88.96 84.52 89.72 85.34 97.61 82.51 99.13 80.89 88.96 84.52"/><polygon class="cls-3" points="107.78 64.33 104.4 75.24 105.91 73.61 109.3 62.71 107.78 64.33"/><polygon class="cls-4" points="91.24 82.08 97.44 75.43 100.54 78.76 100.54 78.76 91.24 82.08"/><polygon class="cls-4" points="110.44 63.93 108.18 71.18 108.18 71.18 112.69 66.34 110.44 63.93"/><polygon class="cls-4" points="107.03 65.15 100.83 71.8 103.93 75.12 103.93 75.12 107.03 65.15"/><polygon class="cls-4" points="95.74 91.8 100.25 86.96 100.25 86.96 98 94.21 95.74 91.8"/><polygon class="cls-4" points="104.51 83.02 104.51 83.02 107.61 86.34 101.41 92.99 104.51 83.02"/><polygon class="cls-4" points="116.08 69.98 111.57 74.81 111.57 74.81 118.33 72.4 116.08 69.98"/><polygon class="cls-4" points="107.9 79.38 107.9 79.38 111 82.7 117.19 76.06 107.9 79.38"/></g><polygon class="cls-8" points="126.24 44.53 133.97 36.24 139.45 42.12 131.72 50.41 126.24 44.53"/><polygon class="cls-9" points="127.12 44.09 127.41 44.25 127.64 44.01 127.58 44.35 127.87 44.5 127.55 44.56 127.5 44.9 127.36 44.59 127.04 44.65 127.27 44.4 127.12 44.09"/><polygon class="cls-9" points="128.41 42.71 128.7 42.87 128.92 42.63 128.87 42.97 129.16 43.12 128.84 43.18 128.79 43.52 128.65 43.21 128.33 43.26 128.56 43.02 128.41 42.71"/><polygon class="cls-9" points="129.7 41.33 129.98 41.49 130.21 41.24 130.16 41.58 130.45 41.74 130.13 41.8 130.08 42.14 129.93 41.83 129.62 41.88 129.84 41.64 129.7 41.33"/><polygon class="cls-9" points="130.99 39.95 131.27 40.11 131.5 39.86 131.45 40.2 131.74 40.36 131.42 40.41 131.37 40.75 131.22 40.45 130.9 40.5 131.13 40.26 130.99 39.95"/><polygon class="cls-9" points="132.27 38.57 132.56 38.72 132.79 38.48 132.74 38.82 133.02 38.98 132.71 39.03 132.66 39.37 132.51 39.06 132.19 39.12 132.42 38.88 132.27 38.57"/><polygon class="cls-9" points="133.56 37.19 133.85 37.34 134.07 37.1 134.03 37.44 134.31 37.6 133.99 37.65 133.94 37.99 133.8 37.68 133.48 37.74 133.71 37.49 133.56 37.19"/><polygon class="cls-9" points="128.31 43.99 128.6 44.15 128.83 43.9 128.78 44.24 129.06 44.4 128.75 44.45 128.69 44.8 128.55 44.49 128.23 44.54 128.46 44.3 128.31 43.99"/><polygon class="cls-9" points="129.6 42.61 129.89 42.77 130.12 42.52 130.06 42.86 130.35 43.02 130.03 43.07 129.98 43.41 129.84 43.11 129.52 43.16 129.75 42.92 129.6 42.61"/><polygon class="cls-9" points="130.89 41.23 131.18 41.38 131.4 41.14 131.35 41.48 131.64 41.64 131.32 41.69 131.27 42.03 131.13 41.73 130.81 41.78 131.03 41.53 130.89 41.23"/><polygon class="cls-9" points="132.18 39.85 132.46 40 132.69 39.76 132.64 40.1 132.93 40.26 132.61 40.31 132.56 40.65 132.41 40.34 132.1 40.4 132.32 40.15 132.18 39.85"/><polygon class="cls-9" points="133.47 38.46 133.75 38.62 133.98 38.38 133.93 38.72 134.22 38.87 133.9 38.93 133.85 39.27 133.7 38.96 133.38 39.02 133.61 38.77 133.47 38.46"/><polygon class="cls-9" points="128.22 45.27 128.5 45.43 128.73 45.18 128.68 45.52 128.97 45.68 128.65 45.73 128.6 46.07 128.45 45.77 128.13 45.82 128.36 45.58 128.22 45.27"/><polygon class="cls-9" points="129.5 43.89 129.79 44.04 130.02 43.8 129.97 44.14 130.25 44.3 129.94 44.35 129.89 44.69 129.74 44.38 129.42 44.44 129.65 44.2 129.5 43.89"/><polygon class="cls-9" points="130.79 42.51 131.08 42.66 131.31 42.42 131.26 42.76 131.54 42.92 131.22 42.97 131.18 43.31 131.03 43 130.71 43.06 130.94 42.81 130.79 42.51"/><polygon class="cls-9" points="132.08 41.12 132.37 41.28 132.59 41.04 132.54 41.38 132.83 41.53 132.51 41.59 132.46 41.93 132.32 41.62 132 41.67 132.23 41.43 132.08 41.12"/><polygon class="cls-9" points="133.37 39.74 133.66 39.9 133.88 39.66 133.83 40 134.12 40.15 133.8 40.21 133.75 40.55 133.6 40.24 133.29 40.29 133.51 40.05 133.37 39.74"/><polygon class="cls-9" points="134.66 38.36 134.94 38.52 135.17 38.27 135.12 38.61 135.41 38.77 135.09 38.83 135.04 39.16 134.89 38.86 134.57 38.91 134.8 38.67 134.66 38.36"/><polygon class="cls-9" points="129.41 45.17 129.69 45.32 129.92 45.08 129.87 45.42 130.16 45.58 129.84 45.63 129.79 45.97 129.64 45.66 129.33 45.72 129.55 45.47 129.41 45.17"/><polygon class="cls-9" points="130.7 43.78 130.98 43.94 131.21 43.7 131.16 44.04 131.45 44.19 131.13 44.25 131.08 44.59 130.93 44.28 130.62 44.34 130.84 44.09 130.7 43.78"/><polygon class="cls-9" points="131.98 42.4 132.27 42.56 132.5 42.31 132.45 42.66 132.73 42.81 132.42 42.87 132.37 43.21 132.22 42.9 131.9 42.95 132.13 42.71 131.98 42.4"/><polygon class="cls-9" points="133.27 41.02 133.56 41.18 133.79 40.93 133.74 41.27 134.02 41.43 133.71 41.48 133.65 41.83 133.51 41.52 133.19 41.57 133.42 41.33 133.27 41.02"/><polygon class="cls-9" points="134.56 39.64 134.85 39.8 135.07 39.55 135.02 39.89 135.31 40.05 134.99 40.1 134.94 40.44 134.8 40.14 134.48 40.19 134.71 39.95 134.56 39.64"/><polygon class="cls-9" points="129.31 46.44 129.6 46.6 129.83 46.36 129.78 46.7 130.06 46.85 129.74 46.91 129.69 47.25 129.55 46.94 129.23 46.99 129.46 46.75 129.31 46.44"/><polygon class="cls-9" points="130.6 45.06 130.89 45.22 131.11 44.98 131.06 45.31 131.35 45.47 131.03 45.53 130.98 45.87 130.84 45.56 130.52 45.61 130.75 45.37 130.6 45.06"/><polygon class="cls-9" points="131.89 43.68 132.17 43.84 132.4 43.59 132.35 43.93 132.64 44.09 132.32 44.14 132.27 44.48 132.12 44.18 131.81 44.23 132.03 43.99 131.89 43.68"/><polygon class="cls-9" points="133.18 42.3 133.46 42.45 133.69 42.21 133.64 42.55 133.93 42.71 133.61 42.76 133.56 43.1 133.41 42.8 133.09 42.85 133.32 42.61 133.18 42.3"/><polygon class="cls-9" points="134.46 40.92 134.75 41.07 134.98 40.83 134.93 41.17 135.21 41.33 134.9 41.38 134.85 41.72 134.7 41.41 134.38 41.47 134.61 41.22 134.46 40.92"/><polygon class="cls-9" points="135.75 39.54 136.04 39.69 136.27 39.45 136.22 39.79 136.5 39.95 136.18 40 136.13 40.34 135.99 40.03 135.67 40.09 135.9 39.84 135.75 39.54"/><polygon class="cls-9" points="130.5 46.34 130.79 46.5 131.02 46.25 130.97 46.59 131.25 46.75 130.94 46.8 130.88 47.15 130.74 46.84 130.42 46.89 130.65 46.65 130.5 46.34"/><polygon class="cls-9" points="131.79 44.96 132.08 45.12 132.31 44.87 132.25 45.21 132.54 45.37 132.22 45.42 132.17 45.76 132.03 45.46 131.71 45.51 131.94 45.27 131.79 44.96"/><polygon class="cls-9" points="133.08 43.58 133.37 43.73 133.59 43.49 133.54 43.83 133.83 43.99 133.51 44.04 133.46 44.38 133.31 44.07 133 44.13 133.22 43.88 133.08 43.58"/><polygon class="cls-9" points="134.37 42.2 134.65 42.35 134.88 42.11 134.83 42.45 135.12 42.6 134.8 42.66 134.75 43 134.6 42.69 134.29 42.75 134.51 42.5 134.37 42.2"/><polygon class="cls-9" points="135.66 40.81 135.94 40.97 136.17 40.73 136.12 41.07 136.41 41.22 136.09 41.28 136.04 41.62 135.89 41.31 135.57 41.37 135.8 41.12 135.66 40.81"/><polygon class="cls-9" points="130.41 47.62 130.69 47.77 130.92 47.53 130.87 47.87 131.16 48.03 130.84 48.08 130.79 48.42 130.64 48.12 130.32 48.17 130.55 47.93 130.41 47.62"/><polygon class="cls-9" points="131.69 46.24 131.98 46.39 132.21 46.15 132.16 46.49 132.44 46.65 132.13 46.7 132.08 47.04 131.93 46.73 131.61 46.79 131.84 46.54 131.69 46.24"/><polygon class="cls-9" points="132.98 44.85 133.27 45.01 133.5 44.77 133.45 45.11 133.73 45.27 133.41 45.32 133.37 45.66 133.22 45.35 132.9 45.41 133.13 45.16 132.98 44.85"/><polygon class="cls-9" points="134.27 43.47 134.56 43.63 134.78 43.39 134.73 43.73 135.02 43.88 134.7 43.94 134.65 44.28 134.51 43.97 134.19 44.02 134.42 43.78 134.27 43.47"/><polygon class="cls-9" points="135.56 42.09 135.84 42.25 136.07 42.01 136.02 42.34 136.31 42.5 135.99 42.56 135.94 42.9 135.79 42.59 135.48 42.64 135.71 42.4 135.56 42.09"/><polygon class="cls-9" points="136.85 40.71 137.13 40.87 137.36 40.62 137.31 40.96 137.6 41.12 137.28 41.17 137.23 41.52 137.08 41.21 136.77 41.26 136.99 41.02 136.85 40.71"/><polygon class="cls-9" points="131.6 47.52 131.88 47.67 132.11 47.43 132.06 47.77 132.35 47.92 132.03 47.98 131.98 48.32 131.84 48.01 131.52 48.07 131.74 47.82 131.6 47.52"/><polygon class="cls-9" points="132.89 46.13 133.17 46.29 133.4 46.05 133.35 46.39 133.64 46.54 133.32 46.6 133.27 46.94 133.12 46.63 132.81 46.68 133.03 46.44 132.89 46.13"/><polygon class="cls-9" points="134.17 44.75 134.46 44.91 134.69 44.66 134.64 45.01 134.92 45.16 134.61 45.22 134.56 45.56 134.41 45.25 134.09 45.3 134.32 45.06 134.17 44.75"/><polygon class="cls-9" points="135.46 43.37 135.75 43.53 135.98 43.28 135.93 43.62 136.21 43.78 135.9 43.83 135.84 44.17 135.7 43.87 135.38 43.92 135.61 43.68 135.46 43.37"/><polygon class="cls-9" points="136.75 41.99 137.04 42.15 137.26 41.9 137.21 42.24 137.5 42.4 137.18 42.45 137.13 42.79 136.99 42.49 136.67 42.54 136.9 42.3 136.75 41.99"/><polygon class="cls-9" points="131.5 48.79 131.79 48.95 132.02 48.71 131.97 49.05 132.25 49.2 131.93 49.26 131.88 49.6 131.74 49.29 131.42 49.34 131.65 49.1 131.5 48.79"/><polygon class="cls-9" points="132.79 47.41 133.08 47.57 133.3 47.32 133.25 47.66 133.54 47.82 133.22 47.88 133.17 48.22 133.03 47.91 132.71 47.96 132.94 47.72 132.79 47.41"/><polygon class="cls-9" points="134.08 46.03 134.36 46.19 134.59 45.94 134.54 46.28 134.83 46.44 134.51 46.49 134.46 46.83 134.31 46.53 134 46.58 134.22 46.34 134.08 46.03"/><polygon class="cls-9" points="135.37 44.65 135.65 44.8 135.88 44.56 135.83 44.9 136.12 45.06 135.8 45.11 135.75 45.45 135.6 45.15 135.28 45.2 135.51 44.95 135.37 44.65"/><polygon class="cls-9" points="136.65 43.27 136.94 43.42 137.17 43.18 137.12 43.52 137.4 43.68 137.09 43.73 137.04 44.07 136.89 43.76 136.57 43.82 136.8 43.57 136.65 43.27"/><polygon class="cls-9" points="137.94 41.88 138.23 42.04 138.46 41.8 138.41 42.14 138.69 42.3 138.37 42.35 138.32 42.69 138.18 42.38 137.86 42.44 138.09 42.19 137.94 41.88"/><polygon class="cls-9" points="123.27 58.63 124.05 57.79 125.07 58.88 124.29 59.71 123.27 58.63"/><polygon class="cls-10" points="124.05 57.79 124.83 56.95 126.76 59.02 125.98 59.86 124.05 57.79"/><polygon class="cls-9" points="124.83 56.95 125.61 56.11 129.16 59.92 127.5 59.82 124.83 56.95"/><polygon class="cls-10" points="125.61 56.11 126.4 55.28 129.94 59.08 129.16 59.92 125.61 56.11"/><polygon class="cls-9" points="126.4 55.28 127.18 54.44 131.97 58.99 130.91 60.12 126.4 55.28"/><polygon class="cls-10" points="127.18 54.44 127.97 53.58 133.08 59.08 132.29 59.92 127.18 54.44"/><g class="cls-11"><rect class="cls-2" x="135.99" y="20.47" width="143.85" height="77.15"/><rect class="cls-5" x="135.99" y="20.47" width="143.85" height="5.93"/><rect class="cls-5" x="135.99" y="32.34" width="143.85" height="5.93"/><rect class="cls-5" x="135.99" y="44.21" width="143.85" height="5.93"/><rect class="cls-5" x="135.99" y="56.08" width="143.85" height="5.93"/><rect class="cls-5" x="135.99" y="67.95" width="143.85" height="5.93"/><rect class="cls-5" x="135.99" y="79.82" width="143.85" height="5.93"/><rect class="cls-5" x="135.99" y="91.69" width="143.85" height="5.93"/><rect class="cls-12" x="135.99" y="20.47" width="54.66" height="41.54"/><polygon class="cls-9" points="140.54 22.25 141.04 23.89 142.65 23.89 141.35 24.91 141.84 26.55 140.54 25.53 139.24 26.55 139.74 24.91 138.44 23.89 140.05 23.89 140.54 22.25"/><polygon class="cls-9" points="149.65 22.25 150.15 23.89 151.76 23.89 150.46 24.91 150.96 26.55 149.65 25.53 148.35 26.55 148.85 24.91 147.55 23.89 149.16 23.89 149.65 22.25"/><polygon class="cls-9" points="158.76 22.25 159.26 23.89 160.87 23.89 159.57 24.91 160.06 26.55 158.76 25.53 157.46 26.55 157.96 24.91 156.66 23.89 158.27 23.89 158.76 22.25"/><polygon class="cls-9" points="167.87 22.25 168.37 23.89 169.98 23.89 168.68 24.91 169.18 26.55 167.87 25.53 166.57 26.55 167.07 24.91 165.77 23.89 167.38 23.89 167.87 22.25"/><polygon class="cls-9" points="176.99 22.25 177.48 23.89 179.09 23.89 177.79 24.91 178.29 26.55 176.99 25.53 175.68 26.55 176.18 24.91 174.88 23.89 176.49 23.89 176.99 22.25"/><polygon class="cls-9" points="186.09 22.25 186.59 23.89 188.2 23.89 186.9 24.91 187.4 26.55 186.09 25.53 184.79 26.55 185.29 24.91 183.99 23.89 185.6 23.89 186.09 22.25"/><polygon class="cls-9" points="145.1 26.41 145.6 28.05 147.2 28.05 145.9 29.06 146.4 30.7 145.1 29.69 143.8 30.7 144.29 29.06 142.99 28.05 144.6 28.05 145.1 26.41"/><polygon class="cls-9" points="154.21 26.41 154.71 28.05 156.31 28.05 155.01 29.06 155.51 30.7 154.21 29.69 152.91 30.7 153.41 29.06 152.1 28.05 153.71 28.05 154.21 26.41"/><polygon class="cls-9" points="163.32 26.41 163.82 28.05 165.42 28.05 164.12 29.06 164.62 30.7 163.32 29.69 162.02 30.7 162.51 29.06 161.22 28.05 162.82 28.05 163.32 26.41"/><polygon class="cls-9" points="172.43 26.41 172.93 28.05 174.53 28.05 173.23 29.06 173.73 30.7 172.43 29.69 171.13 30.7 171.63 29.06 170.32 28.05 171.93 28.05 172.43 26.41"/><polygon class="cls-9" points="181.54 26.41 182.04 28.05 183.65 28.05 182.34 29.06 182.84 30.7 181.54 29.69 180.24 30.7 180.74 29.06 179.44 28.05 181.04 28.05 181.54 26.41"/><polygon class="cls-9" points="140.54 30.56 141.04 32.2 142.65 32.2 141.35 33.22 141.84 34.85 140.54 33.84 139.24 34.85 139.74 33.22 138.44 32.2 140.05 32.2 140.54 30.56"/><polygon class="cls-9" points="149.65 30.56 150.15 32.2 151.76 32.2 150.46 33.22 150.96 34.85 149.65 33.84 148.35 34.85 148.85 33.22 147.55 32.2 149.16 32.2 149.65 30.56"/><polygon class="cls-9" points="158.76 30.56 159.26 32.2 160.87 32.2 159.57 33.22 160.06 34.85 158.76 33.84 157.46 34.85 157.96 33.22 156.66 32.2 158.27 32.2 158.76 30.56"/><polygon class="cls-9" points="167.87 30.56 168.37 32.2 169.98 32.2 168.68 33.22 169.18 34.85 167.87 33.84 166.57 34.85 167.07 33.22 165.77 32.2 167.38 32.2 167.87 30.56"/><polygon class="cls-9" points="176.99 30.56 177.48 32.2 179.09 32.2 177.79 33.22 178.29 34.85 176.99 33.84 175.68 34.85 176.18 33.22 174.88 32.2 176.49 32.2 176.99 30.56"/><polygon class="cls-9" points="186.09 30.56 186.59 32.2 188.2 32.2 186.9 33.22 187.4 34.85 186.09 33.84 184.79 34.85 185.29 33.22 183.99 32.2 185.6 32.2 186.09 30.56"/><polygon class="cls-9" points="145.1 34.72 145.6 36.35 147.2 36.35 145.9 37.37 146.4 39.01 145.1 37.99 143.8 39.01 144.29 37.37 142.99 36.35 144.6 36.35 145.1 34.72"/><polygon class="cls-9" points="154.21 34.72 154.71 36.35 156.31 36.35 155.01 37.37 155.51 39.01 154.21 37.99 152.91 39.01 153.41 37.37 152.1 36.35 153.71 36.35 154.21 34.72"/><polygon class="cls-9" points="163.32 34.72 163.82 36.35 165.42 36.35 164.12 37.37 164.62 39.01 163.32 37.99 162.02 39.01 162.51 37.37 161.22 36.35 162.82 36.35 163.32 34.72"/><polygon class="cls-9" points="172.43 34.72 172.93 36.35 174.53 36.35 173.23 37.37 173.73 39.01 172.43 37.99 171.13 39.01 171.63 37.37 170.32 36.35 171.93 36.35 172.43 34.72"/><polygon class="cls-9" points="181.54 34.72 182.04 36.35 183.65 36.35 182.34 37.37 182.84 39.01 181.54 37.99 180.24 39.01 180.74 37.37 179.44 36.35 181.04 36.35 181.54 34.72"/><polygon class="cls-9" points="140.54 38.87 141.04 40.51 142.65 40.51 141.35 41.52 141.84 43.16 140.54 42.15 139.24 43.16 139.74 41.52 138.44 40.51 140.05 40.51 140.54 38.87"/><polygon class="cls-9" points="149.65 38.87 150.15 40.51 151.76 40.51 150.46 41.52 150.96 43.16 149.65 42.15 148.35 43.16 148.85 41.52 147.55 40.51 149.16 40.51 149.65 38.87"/><polygon class="cls-9" points="158.76 38.87 159.26 40.51 160.87 40.51 159.57 41.52 160.06 43.16 158.76 42.15 157.46 43.16 157.96 41.52 156.66 40.51 158.27 40.51 158.76 38.87"/><polygon class="cls-9" points="167.87 38.87 168.37 40.51 169.98 40.51 168.68 41.52 169.18 43.16 167.87 42.15 166.57 43.16 167.07 41.52 165.77 40.51 167.38 40.51 167.87 38.87"/><polygon class="cls-9" points="176.99 38.87 177.48 40.51 179.09 40.51 177.79 41.52 178.29 43.16 176.99 42.15 175.68 43.16 176.18 41.52 174.88 40.51 176.49 40.51 176.99 38.87"/><polygon class="cls-9" points="186.09 38.87 186.59 40.51 188.2 40.51 186.9 41.52 187.4 43.16 186.09 42.15 184.79 43.16 185.29 41.52 183.99 40.51 185.6 40.51 186.09 38.87"/><polygon class="cls-9" points="145.1 43.02 145.6 44.66 147.2 44.66 145.9 45.68 146.4 47.32 145.1 46.3 143.8 47.32 144.29 45.68 142.99 44.66 144.6 44.66 145.1 43.02"/><polygon class="cls-9" points="154.21 43.02 154.71 44.66 156.31 44.66 155.01 45.68 155.51 47.32 154.21 46.3 152.91 47.32 153.41 45.68 152.1 44.66 153.71 44.66 154.21 43.02"/><polygon class="cls-9" points="163.32 43.02 163.82 44.66 165.42 44.66 164.12 45.68 164.62 47.32 163.32 46.3 162.02 47.32 162.51 45.68 161.22 44.66 162.82 44.66 163.32 43.02"/><polygon class="cls-9" points="172.43 43.02 172.93 44.66 174.53 44.66 173.23 45.68 173.73 47.32 172.43 46.3 171.13 47.32 171.63 45.68 170.32 44.66 171.93 44.66 172.43 43.02"/><polygon class="cls-9" points="181.54 43.02 182.04 44.66 183.65 44.66 182.34 45.68 182.84 47.32 181.54 46.3 180.24 47.32 180.74 45.68 179.44 44.66 181.04 44.66 181.54 43.02"/><polygon class="cls-9" points="140.54 47.18 141.04 48.82 142.65 48.82 141.35 49.83 141.84 51.47 140.54 50.46 139.24 51.47 139.74 49.83 138.44 48.82 140.05 48.82 140.54 47.18"/><polygon class="cls-9" points="149.65 47.18 150.15 48.82 151.76 48.82 150.46 49.83 150.96 51.47 149.65 50.46 148.35 51.47 148.85 49.83 147.55 48.82 149.16 48.82 149.65 47.18"/><polygon class="cls-9" points="158.76 47.18 159.26 48.82 160.87 48.82 159.57 49.83 160.06 51.47 158.76 50.46 157.46 51.47 157.96 49.83 156.66 48.82 158.27 48.82 158.76 47.18"/><polygon class="cls-9" points="167.87 47.18 168.37 48.82 169.98 48.82 168.68 49.83 169.18 51.47 167.87 50.46 166.57 51.47 167.07 49.83 165.77 48.82 167.38 48.82 167.87 47.18"/><polygon class="cls-9" points="176.99 47.18 177.48 48.82 179.09 48.82 177.79 49.83 178.29 51.47 176.99 50.46 175.68 51.47 176.18 49.83 174.88 48.82 176.49 48.82 176.99 47.18"/><polygon class="cls-9" points="186.09 47.18 186.59 48.82 188.2 48.82 186.9 49.83 187.4 51.47 186.09 50.46 184.79 51.47 185.29 49.83 183.99 48.82 185.6 48.82 186.09 47.18"/><polygon class="cls-9" points="145.1 51.33 145.6 52.97 147.2 52.97 145.9 53.99 146.4 55.63 145.1 54.61 143.8 55.63 144.29 53.99 142.99 52.97 144.6 52.97 145.1 51.33"/><polygon class="cls-9" points="154.21 51.33 154.71 52.97 156.31 52.97 155.01 53.99 155.51 55.63 154.21 54.61 152.91 55.63 153.41 53.99 152.1 52.97 153.71 52.97 154.21 51.33"/><polygon class="cls-9" points="163.32 51.33 163.82 52.97 165.42 52.97 164.12 53.99 164.62 55.63 163.32 54.61 162.02 55.63 162.51 53.99 161.22 52.97 162.82 52.97 163.32 51.33"/><polygon class="cls-9" points="172.43 51.33 172.93 52.97 174.53 52.97 173.23 53.99 173.73 55.63 172.43 54.61 171.13 55.63 171.63 53.99 170.32 52.97 171.93 52.97 172.43 51.33"/><polygon class="cls-9" points="181.54 51.33 182.04 52.97 183.65 52.97 182.34 53.99 182.84 55.63 181.54 54.61 180.24 55.63 180.74 53.99 179.44 52.97 181.04 52.97 181.54 51.33"/><polygon class="cls-9" points="140.54 55.49 141.04 57.13 142.65 57.13 141.35 58.14 141.84 59.78 140.54 58.77 139.24 59.78 139.74 58.14 138.44 57.13 140.05 57.13 140.54 55.49"/><polygon class="cls-9" points="149.65 55.49 150.15 57.13 151.76 57.13 150.46 58.14 150.96 59.78 149.65 58.77 148.35 59.78 148.85 58.14 147.55 57.13 149.16 57.13 149.65 55.49"/><polygon class="cls-9" points="158.76 55.49 159.26 57.13 160.87 57.13 159.57 58.14 160.06 59.78 158.76 58.77 157.46 59.78 157.96 58.14 156.66 57.13 158.27 57.13 158.76 55.49"/><polygon class="cls-9" points="167.87 55.49 168.37 57.13 169.98 57.13 168.68 58.14 169.18 59.78 167.87 58.77 166.57 59.78 167.07 58.14 165.77 57.13 167.38 57.13 167.87 55.49"/><polygon class="cls-9" points="176.99 55.49 177.48 57.13 179.09 57.13 177.79 58.14 178.29 59.78 176.99 58.77 175.68 59.78 176.18 58.14 174.88 57.13 176.49 57.13 176.99 55.49"/><polygon class="cls-9" points="186.09 55.49 186.59 57.13 188.2 57.13 186.9 58.14 187.4 59.78 186.09 58.77 184.79 59.78 185.29 58.14 183.99 57.13 185.6 57.13 186.09 55.49"/></g></svg>