<svg id="Layer_1" data-name="Layer 1" xmlns="http://www.w3.org/2000/svg" xmlns:xlink="http://www.w3.org/1999/xlink" viewBox="0 0 61.74 62"><defs><style>.cls-1{fill:none;}.cls-2,.cls-7{fill:#fff;}.cls-3{fill:#c8102e;}.cls-4{fill:#012169;}.cls-5{clip-path:url(#clip-path);}.cls-6{clip-path:url(#clip-path-2);}.cls-7{fill-rule:evenodd;}</style><clipPath id="clip-path" transform="translate(-2.26 -1)"><path id="SVGID" class="cls-1" d="M26.42,11.75c4.18,0,8.19,2.13,11.15,5.93A23.48,23.48,0,0,1,42.18,32c0,11.19-7.06,20.25-15.76,20.25S10.65,43.18,10.65,32a23.42,23.42,0,0,1,4.62-14.31A14.22,14.22,0,0,1,26.42,11.75Z"/></clipPath><clipPath id="clip-path-2" transform="translate(-2.26 -1)"><polygon id="SVGID-2" data-name="SVGID" class="cls-1" points="41.27 45.37 50.19 33.92 54.65 39.64 45.73 51.09 41.27 45.37"/></clipPath></defs><path class="cls-2" d="M57.1,23.65,64,32.51l-1.5,1.92a100.77,100.77,0,0,1-6.89-8.86Z" transform="translate(-2.26 -1)"/><path class="cls-3" d="M4.37,32c0,.46,0,.91,0,1.36s0,.91.07,1.36.08.9.13,1.35.11.9.17,1.34.15.89.23,1.34.18.88.28,1.32.21.87.33,1.3.24.86.37,1.29.28.85.43,1.27.31.83.48,1.24.35.82.53,1.22.38.8.58,1.2.41.78.63,1.16.45.76.68,1.13.48.73.73,1.09.52.71.79,1.06.54.68.82,1,.56.64.85.94.58.59.88.87l.9.81.93.75.95.68c.32.21.65.42,1,.61s.66.38,1,.55.67.34,1,.49.68.29,1,.42.69.25,1,.36l1,.29c.35.08.7.16,1.05.22s.7.12,1,.17.7.07,1.06.09l1.05,0c.36,0,.71,0,1.06,0s.71-.05,1.06-.09.7-.1,1.05-.17.7-.14,1.05-.22l1-.29c.34-.11.69-.23,1-.36s.68-.27,1-.42.67-.31,1-.49.66-.35,1-.55.65-.4,1-.61l1-.68.93-.75.9-.81c.3-.28.59-.57.88-.87s.57-.62.85-.94.55-.66.82-1L56.13,33.91h0L57.62,32h0l-1.49-1.91h0L42,12c-.27-.34-.54-.68-.82-1s-.56-.64-.85-.94-.58-.59-.88-.87-.6-.56-.91-.81-.61-.51-.93-.75-.63-.46-1-.68-.64-.42-1-.61-.65-.38-1-.56-.66-.33-1-.48S33,5,32.7,4.84s-.68-.25-1-.36-.69-.2-1-.29-.69-.16-1-.23-.7-.12-1.06-.16l-1.05-.1-1.06,0c-.36,0-.71,0-1.06,0l-1.06.1c-.35,0-.7.1-1.05.16s-.7.14-1.05.23-.69.18-1,.29-.69.23-1,.36l-1,.42c-.34.15-.67.31-1,.48s-.66.36-1,.56-.65.39-1,.61-.64.44-.95.68l-.93.75q-.45.38-.9.81c-.3.28-.59.57-.88.87s-.57.61-.85.94-.56.66-.82,1-.53.7-.79,1.06-.49.72-.73,1.09-.46.75-.68,1.13S8.2,16,8,16.41s-.39.79-.58,1.19-.36.81-.53,1.22-.33.83-.48,1.25-.29.84-.43,1.27-.26.85-.37,1.29-.23.87-.33,1.3-.19.88-.28,1.33-.16.88-.23,1.33-.12.9-.17,1.35-.1.9-.13,1.35-.06.9-.07,1.35S4.37,31.55,4.37,32Zm2.09,0q0-.62,0-1.23c0-.41,0-.82.06-1.22s.07-.82.12-1.23.1-.81.16-1.21S7,26.3,7,25.9s.16-.8.25-1.19.19-.79.29-1.19.23-.78.35-1.16.25-.77.39-1.15.28-.75.43-1.13.31-.74.48-1.1.34-.72.53-1.08.37-.71.57-1,.4-.69.62-1,.43-.67.66-1,.46-.64.71-.95.49-.62.74-.91.51-.58.77-.85.53-.54.8-.8.54-.5.82-.73.55-.46.84-.68.57-.42.86-.61.58-.39.87-.56.6-.34.9-.5.6-.3.9-.44.61-.27.92-.38l.93-.33.94-.26c.31-.08.63-.15.95-.21l1-.14c.31,0,.63-.07.95-.09l1,0,1,0,.95.09,1,.14c.32.06.63.13.95.21l.94.26.93.33c.31.11.61.24.92.38s.61.28.91.44.6.32.89.5.59.36.88.56.57.4.86.61.56.44.84.68.55.48.82.73.53.52.8.8.51.55.77.85.5.59.74.91L54.65,32,40.53,50.13c-.24.31-.49.62-.74.91s-.51.58-.77.85-.53.54-.8.79-.54.5-.82.74-.56.46-.84.67-.57.42-.86.62-.58.38-.88.56l-.89.5-.91.44-.92.38c-.31.12-.62.22-.93.32s-.62.19-.94.26-.63.15-.94.21l-.95.15q-.48.06-1,.09l-1,0-1,0q-.48,0-1-.09l-1-.15c-.31-.06-.63-.13-.94-.21s-.63-.16-.94-.26-.62-.2-.93-.32l-.92-.38-.91-.44-.89-.5c-.3-.18-.59-.37-.88-.56s-.58-.4-.86-.62-.56-.44-.84-.67-.55-.48-.82-.74-.53-.52-.8-.79-.51-.56-.77-.85-.5-.6-.74-.91-.48-.63-.71-1-.45-.65-.66-1-.42-.68-.62-1-.39-.7-.57-1S9.4,45.39,9.23,45s-.33-.74-.48-1.11-.3-.75-.43-1.12-.27-.77-.39-1.15-.24-.78-.35-1.17-.2-.78-.29-1.18-.18-.79-.25-1.19-.15-.81-.21-1.21-.12-.81-.16-1.22-.08-.81-.12-1.22,0-.82-.06-1.23S6.46,32.41,6.46,32Z" transform="translate(-2.26 -1)"/><path class="cls-2" d="M4,32.24H4c0,.39,0,.77,0,1.15s0,.92.08,1.38.08.92.13,1.38.11.91.18,1.37h0c.07.45.14.9.23,1.36s.18.9.28,1.34.22.89.34,1.33.25.88.38,1.32.28.86.44,1.29.32.85.49,1.27h0c.17.42.35.83.54,1.24s.38.82.59,1.22.42.79.64,1.18.46.77.7,1.15.48.75.74,1.12h0c.26.36.52.72.8,1.07s.55.69.83,1l.87,1c.3.31.6.61.9.89s.61.56.92.83h0c.31.26.63.51.95.76s.64.47,1,.69.65.43,1,.63h0c.33.19.66.38,1,.56s.68.34,1,.49.69.3,1,.43l1.05.36c.35.11.7.21,1.06.3s.71.17,1.07.23h0c.35.07.71.12,1.07.17h0l1.08.1h0c.35,0,.71,0,1.07,0s.72,0,1.08,0l1.08-.1c.36,0,.72-.1,1.07-.17h0c.36-.06.72-.14,1.07-.23s.71-.19,1.06-.3l1-.36c.35-.13.69-.27,1-.43s.69-.32,1-.49.67-.37,1-.56.67-.41,1-.63.65-.45,1-.69.64-.5.95-.76.62-.54.92-.83.6-.58.9-.89.58-.63.86-1,.57-.67.84-1L56.43,34.29l1.48-1.9.32-.38-1.8-2.31L42.32,11.58c-.27-.35-.55-.7-.84-1s-.57-.65-.86-1-.6-.61-.9-.89-.61-.56-.92-.83-.63-.52-.95-.76h0c-.32-.24-.64-.47-1-.69h0l-1-.63c-.33-.2-.67-.38-1-.56s-.68-.34-1-.49-.69-.3-1-.43-.7-.26-1.05-.37-.7-.21-1.06-.29-.71-.17-1.06-.23h0c-.36-.07-.72-.13-1.08-.17h0c-.35,0-.71-.08-1.07-.1h0q-.54,0-1.08,0t-1.08,0h0c-.36,0-.72.06-1.08.1s-.71.1-1.07.17h0c-.36.06-.71.14-1.07.23s-.7.18-1.05.29-.7.23-1.05.37-.7.27-1,.43-.68.32-1,.49-.67.36-1,.56-.66.41-1,.63h0l-1,.69c-.32.24-.64.5-.95.76s-.62.54-.92.83h0c-.3.28-.6.58-.9.89s-.58.63-.86,1h0q-.43.49-.84,1c-.28.35-.54.71-.8,1.07s-.5.74-.74,1.12H9c-.24.38-.48.76-.7,1.15s-.43.79-.64,1.19-.4.8-.59,1.21h0c-.19.41-.37.83-.54,1.25s-.34.84-.49,1.27-.3.86-.44,1.29-.26.88-.38,1.32-.23.88-.34,1.33-.19.9-.28,1.35-.16.9-.23,1.36-.13.91-.18,1.37h0c0,.46-.1.92-.13,1.38S4,30.16,4,30.62,4,31.54,4,32ZM4.79,32h0q0-.66,0-1.32c0-.44,0-.89.07-1.33S5,28.45,5,28s.1-.88.17-1.32.14-.87.22-1.31l.27-1.29c.1-.43.21-.86.33-1.28s.24-.85.37-1.27.27-.83.42-1.24.3-.82.47-1.23.34-.8.52-1.19.37-.79.57-1.18.4-.76.61-1.14.44-.74.67-1.1h0q.34-.56.72-1.08c.25-.35.5-.69.77-1s.53-.67.8-1h0c.28-.32.55-.62.84-.92s.57-.58.86-.86.59-.54.89-.79.6-.5.91-.73.61-.46.93-.67.63-.41.95-.6.64-.37,1-.54.65-.33,1-.48.66-.28,1-.41.67-.24,1-.35.67-.2,1-.29l1-.22h0l1-.16c.35,0,.69-.07,1-.09h0c.35,0,.69,0,1,0l1,0c.34,0,.69,0,1,.09l1,.16,1,.22c.34.09.68.18,1,.29s.68.22,1,.35.67.26,1,.41.66.31,1,.48l1,.54c.32.19.63.39,1,.6s.62.44.93.67.61.48.91.73h0c.3.25.6.52.89.79l.86.86c.28.3.56.6.84.92s.54.65.8,1l12.55,16.1c1,1.25,1.56,2,1.56,2L57,32l-1.19,1.53h0s-7.29,9.39-11.9,15.31l-2.21,2.81c-.26.34-.53.67-.8,1l-.84.92c-.28.29-.57.58-.86.85h0c-.29.28-.59.54-.89.8h0c-.3.25-.6.5-.91.73l-.93.66c-.31.22-.63.42-1,.61h0c-.32.19-.64.37-1,.54s-.65.33-1,.47-.67.29-1,.42h0l-1,.35c-.34.1-.68.2-1,.28s-.68.16-1,.22h0c-.34.07-.68.12-1,.16h0c-.34,0-.69.08-1,.1s-.69,0-1,0-.7,0-1,0h0c-.35,0-.69-.06-1-.1h0c-.34,0-.69-.09-1-.16h0c-.35-.06-.69-.13-1-.22s-.68-.18-1-.28l-1-.35h0l-1-.42c-.34-.14-.66-.3-1-.47s-.65-.35-1-.54-.63-.39-.95-.61l-.93-.66c-.31-.23-.61-.48-.91-.73h0c-.3-.26-.6-.52-.89-.8s-.58-.56-.86-.85l-.84-.92c-.27-.32-.54-.65-.8-1s-.52-.68-.77-1h0c-.25-.36-.49-.71-.72-1.08h0c-.23-.36-.45-.73-.66-1.1s-.43-.76-.62-1.14-.39-.78-.57-1.17h0c-.18-.4-.36-.8-.52-1.2h0c-.17-.4-.32-.81-.47-1.22s-.29-.83-.42-1.24-.26-.84-.37-1.27-.22-.85-.32-1.28-.19-.86-.28-1.29-.15-.87-.22-1.31S5.07,36.43,5,36s-.09-.88-.13-1.32,0-.89-.07-1.33S4.8,32.45,4.79,32ZM6,32c0,.42,0,.84,0,1.26s0,.84.07,1.25h0c0,.42.07.84.12,1.25s.1.83.16,1.24.14.83.21,1.23.17.82.26,1.23.2.8.3,1.2.23.8.35,1.19.26.79.4,1.17h0c.14.39.29.78.45,1.16s.31.75.49,1.12.35.74.53,1.11.38.72.59,1.07.41.7.63,1.05.44.68.67,1,.48.65.73,1,.5.63.76.93.52.59.79.87.53.55.81.81.55.51.84.75.56.47.85.69.59.43.88.63h0q.45.3.9.57c.3.18.6.35.91.51l.93.45c.31.14.62.27.94.39s.63.23.95.33.63.19,1,.27l1,.21h0c.32.06.65.11,1,.15s.65.07,1,.09.65,0,1,0,.66,0,1,0,.65,0,1-.09h0l1-.15,1-.21q.48-.12,1-.27c.32-.1.64-.21.95-.33s.63-.25.94-.39l.93-.45c.3-.16.61-.33.91-.51s.6-.37.9-.57h0c.29-.2.59-.41.87-.63s.58-.45.86-.69.56-.49.84-.75.55-.53.81-.81.53-.57.79-.87.51-.61.76-.93L43,47.68,55,32.39l.3-.39-.3-.38-1.58-2L40.83,13.49c-.25-.32-.5-.63-.76-.93s-.52-.59-.79-.87h0c-.26-.28-.54-.55-.81-.81h0l-.84-.75c-.28-.24-.57-.47-.86-.69s-.58-.43-.88-.62-.59-.4-.89-.58-.61-.34-.91-.5h0q-.47-.24-.93-.45h0c-.31-.14-.63-.27-.94-.39s-.63-.23-.95-.33-.64-.19-1-.27-.64-.15-1-.21h0c-.32-.06-.65-.11-1-.15h0c-.32,0-.65-.07-1-.09s-.65,0-1,0-.65,0-1,0-.65.05-1,.09h0c-.33,0-.65.09-1,.15h0l-1,.21q-.48.12-1,.27c-.32.1-.63.21-.95.33s-.63.25-.94.39-.62.29-.92.45-.61.33-.92.51-.6.37-.89.57-.59.41-.88.63h0l-.86.68c-.28.24-.56.49-.83.75s-.55.53-.81.81h0c-.27.28-.53.57-.79.87h0c-.26.3-.51.61-.76.93s-.49.65-.73,1-.46.67-.67,1-.43.69-.63,1.05-.4.71-.59,1.07h0c-.18.36-.36.73-.53,1.1s-.34.75-.49,1.13-.31.76-.45,1.15h0c-.14.39-.27.78-.4,1.17s-.24.79-.35,1.19-.21.81-.3,1.21-.18.81-.26,1.22L6.41,27c-.06.42-.11.83-.16,1.25s-.09.83-.12,1.24,0,.84-.07,1.26S6,31.58,6,32Zm.85,0c0-.4,0-.8,0-1.2S7,30,7,29.6s.06-.8.11-1.2.1-.79.16-1.19.12-.79.2-1.18.15-.78.24-1.17.19-.77.29-1.16.22-.76.34-1.14.25-.75.38-1.12.28-.74.43-1.1.3-.73.47-1.08.33-.71.51-1.06.37-.69.56-1,.39-.67.6-1,.43-.65.65-1,.46-.63.7-.94.48-.6.73-.89.5-.56.75-.83h0q.39-.4.78-.78c.26-.25.53-.49.8-.72s.55-.45.82-.66h0l.84-.6c.29-.19.57-.38.86-.55l.88-.49L20,8.31c.3-.13.6-.26.9-.37s.61-.22.91-.32l.92-.26.93-.2h0L24.55,7l.93-.09c.31,0,.63,0,.94,0l.93,0c.32,0,.63.05.94.09l.93.14.93.2.92.26c.3.1.61.2.91.32s.6.24.9.37l.89.43.87.49c.29.17.58.36.86.55l.84.6c.28.21.55.43.83.66s.53.47.8.72.52.51.78.78h0c.25.27.5.54.75.83s.49.59.73.89L54.05,32,40.23,49.74c-.24.31-.48.61-.73.9l-.75.83c-.26.27-.52.53-.78.77s-.53.49-.8.72-.55.45-.83.66-.55.42-.84.61h0c-.28.19-.57.37-.86.54s-.58.34-.87.49-.59.3-.89.43-.6.26-.9.38-.6.22-.91.31-.61.18-.92.26-.61.14-.92.2h0L28.3,57h0l-.94.08c-.31,0-.62,0-.94,0s-.62,0-.93,0L24.55,57l-.93-.15h0c-.31-.06-.62-.12-.92-.2s-.62-.16-.92-.26-.61-.2-.91-.31-.6-.24-.9-.38-.6-.28-.89-.43-.59-.31-.87-.49-.58-.35-.86-.54h0c-.29-.19-.57-.4-.84-.61s-.56-.43-.83-.66h0c-.27-.23-.54-.47-.8-.72s-.52-.5-.78-.77h0c-.25-.27-.51-.55-.75-.83s-.49-.59-.73-.9-.47-.61-.7-.93-.44-.64-.65-1-.41-.67-.6-1l-.56-1c-.18-.35-.35-.7-.52-1.06s-.32-.72-.46-1.08-.3-.73-.43-1.1h0c-.13-.38-.26-.75-.38-1.13S8.09,40.69,8,40.3s-.2-.77-.29-1.15-.17-.78-.24-1.17-.15-.79-.21-1.18-.11-.8-.15-1.19S7,34.81,7,34.41s-.06-.8-.07-1.2S6.89,32.4,6.89,32Z" transform="translate(-2.26 -1)"/><path class="cls-4" d="M54.65,32l-1.57-2L40.53,13.88c-.24-.32-.49-.62-.74-.91s-.51-.58-.77-.85-.53-.54-.8-.8-.54-.5-.82-.73-.56-.46-.84-.68S36,9.49,35.7,9.3s-.58-.39-.88-.56-.59-.34-.89-.5-.61-.3-.91-.44-.61-.27-.92-.38l-.93-.33-.94-.26c-.32-.08-.63-.15-.95-.21l-1-.14-.95-.09-1,0-1,0c-.32,0-.64.05-.95.09l-1,.14c-.32.06-.64.13-.95.21l-.94.26-.93.33c-.31.11-.61.24-.92.38s-.6.28-.9.44-.6.32-.9.5-.58.36-.87.56-.58.4-.86.61-.57.44-.84.68-.55.48-.82.73-.54.52-.8.8-.51.55-.77.85-.5.59-.74.91-.48.63-.71.95-.45.66-.66,1-.42.67-.62,1-.39.69-.57,1-.36.72-.53,1.08-.33.73-.48,1.1-.3.75-.43,1.13-.27.76-.39,1.15-.24.77-.35,1.16-.2.79-.29,1.19S7.11,25.5,7,25.9s-.15.8-.21,1.21-.12.81-.16,1.21-.08.82-.12,1.23,0,.81-.06,1.22,0,.82,0,1.23,0,.82,0,1.23,0,.82.06,1.23.07.82.12,1.22.1.82.16,1.22.13.81.21,1.21.16.79.25,1.19.19.79.29,1.18.23.78.35,1.17.25.77.39,1.15.28.75.43,1.12.31.74.48,1.11.34.72.53,1.08.37.7.57,1,.4.69.62,1,.43.67.66,1,.46.65.71,1,.49.62.74.91.51.58.77.85.53.54.8.79.54.5.82.74.56.46.84.67.57.42.86.62.58.38.88.56l.89.5.91.44.92.38c.31.12.62.22.93.32s.62.19.94.26.63.15.94.21l1,.15q.48.06,1,.09l1,0,1,0q.48,0,1-.09l.95-.15c.31-.06.63-.13.94-.21s.63-.16.94-.26.62-.2.93-.32l.92-.38.91-.44.89-.5c.3-.18.59-.37.88-.56s.58-.4.86-.62.56-.44.84-.67.55-.48.82-.74.53-.52.8-.79.51-.56.77-.85.5-.6.74-.91l2.23-2.85C44.33,45.26,45.58,43.64,54.65,32ZM8.57,32a26.45,26.45,0,0,1,5.22-16.21c3.5-4.5,8.07-6.74,12.63-6.74h0c4.56,0,9.14,2.25,12.64,6.74L51.68,32h0C50.2,42.58,43.74,43,41.27,45.37l-2.21,2.84C35.56,52.71,31,55,26.43,55s-9.14-2.25-12.64-6.75A26.43,26.43,0,0,1,8.57,32Z" transform="translate(-2.26 -1)"/><path class="cls-4" d="M2.26,32A35.92,35.92,0,0,0,9.34,53.94C18.74,66,34.11,66,43.51,53.94l2.22-2.85c.33-.43.58-1.15,1-1.28l2.72-3.49a8.11,8.11,0,0,1,1.48-1.91l2.72-3.49c.22-.51-.34-1,.15-1.27-.85,0-1.31-1.11-.64-.42.47-.6,2.44-.82,3-1.49L60.6,32h0l-3.12-3.65-1.34-2.07L53.9,23.4,43.51,10.06C38.81,4,32.61,1,26.42,1S14,4,9.34,10.06A36,36,0,0,0,2.26,32Zm2.11,0c0-.45,0-.9,0-1.36s0-.9.07-1.35.08-.9.13-1.35.11-.9.17-1.35.15-.89.23-1.33.18-.89.28-1.33.21-.87.33-1.3.24-.87.37-1.29.28-.85.43-1.27.31-.84.48-1.25.35-.82.53-1.22.38-.8.58-1.19.41-.78.63-1.17.45-.76.68-1.13.48-.73.73-1.09.52-.71.79-1.06.54-.68.82-1,.56-.64.85-.94.58-.59.88-.87.6-.55.9-.81l.93-.75c.31-.24.63-.46.95-.68s.64-.42,1-.61.66-.38,1-.55.66-.34,1-.49l1-.42c.34-.13.68-.25,1-.36s.69-.2,1-.29S22.9,4,23.25,4L24.3,3.8l1.06-.1c.35,0,.71,0,1.06,0l1.06,0,1.05.1c.36,0,.71.1,1.06.16s.7.14,1,.23.7.18,1,.29.69.23,1,.36.68.27,1,.42.67.31,1,.49.66.35,1,.55.65.4,1,.61.64.44,1,.68.63.49.93.75.61.52.91.81.59.57.88.87.57.62.85.94.55.66.82,1L54.56,28.07l.09.11h0l3,3.81-1.49,1.92h0L44.24,49.18,42,52c-.27.34-.54.68-.82,1s-.56.64-.85.94-.58.59-.88.87l-.9.81-.93.75-1,.68c-.32.21-.65.42-1,.61s-.66.38-1,.55-.67.34-1,.49-.68.29-1,.42-.69.25-1,.36l-1,.29c-.35.08-.7.16-1.05.22s-.7.12-1.05.17-.7.07-1.06.09-.7,0-1.05,0-.71,0-1.06,0-.71-.05-1.06-.09-.7-.1-1-.17-.7-.14-1.05-.22l-1-.29c-.34-.11-.69-.23-1-.36s-.68-.27-1-.42-.67-.31-1-.49-.66-.35-1-.55-.65-.4-1-.61l-.95-.68-.93-.75-.9-.81c-.3-.28-.59-.57-.88-.87s-.57-.62-.85-.94-.55-.66-.82-1S10.3,51.33,10,51s-.49-.72-.73-1.09-.46-.75-.68-1.13S8.2,48,8,47.59s-.39-.79-.58-1.2-.36-.81-.53-1.22-.32-.82-.48-1.24-.29-.84-.42-1.27-.27-.85-.38-1.29-.23-.87-.33-1.3-.19-.88-.28-1.32-.16-.89-.23-1.34-.12-.89-.17-1.34-.09-.9-.13-1.35-.06-.91-.07-1.36S4.37,32.46,4.37,32Z" transform="translate(-2.26 -1)"/><path class="cls-2" d="M55.61,40.87l-1-1.23a34.19,34.19,0,0,1-4.46-5.72L48,31l1.49-1.91,2.15,2.77,2.32,3a21.84,21.84,0,0,1,3.14,4Z" transform="translate(-2.26 -1)"/><path class="cls-2" d="M55.69,32.57l-.3.39-2.31-3,.29-.38Z" transform="translate(-2.26 -1)"/><g class="cls-5"><polygon class="cls-4" points="11.57 51.24 20.4 39.9 20.4 39.9 20.4 51.24 11.57 51.24"/><polygon class="cls-2" points="8.38 51.24 11.57 51.24 14.6 47.36 14.6 47.36 20.4 39.9 20.4 51.24 27.91 51.24 27.91 39.9 33.71 47.36 36.73 51.24 39.92 51.24 39.92 47.15 36.89 43.27 31.09 35.81 39.92 35.81 39.92 26.17 31.09 26.17 36.89 18.72 39.92 14.83 39.92 10.74 36.73 10.74 33.71 14.63 27.91 22.08 27.91 10.74 20.4 10.74 20.4 22.08 14.6 14.63 14.6 14.63 11.57 10.74 8.38 10.74 8.38 14.83 11.41 18.72 17.21 26.17 8.38 26.17 8.38 35.81 17.21 35.81 11.41 43.27 8.38 47.15 8.38 51.24"/><polygon class="cls-3" points="8.38 33.88 21.9 33.88 21.9 51.24 26.41 51.24 26.41 33.88 39.92 33.88 39.92 28.1 26.41 28.1 26.41 10.74 21.9 10.74 21.9 28.1 8.38 28.1 8.38 33.88"/><polygon class="cls-3" points="27.91 26.17 39.92 10.74 37.8 10.74 27.91 23.44 27.91 26.17"/><polygon class="cls-3" points="8.38 51.24 10.51 51.24 20.4 38.54 20.4 35.81 8.38 51.24"/><polygon class="cls-3" points="8.38 13.47 18.27 26.17 20.4 26.17 8.38 10.74 8.38 13.47"/><polygon class="cls-3" points="39.92 48.51 30.03 35.81 27.91 35.81 39.92 51.24 39.92 48.51"/><polygon class="cls-4" points="8.38 47.15 17.21 35.81 17.21 35.81 8.38 35.81 8.38 47.15"/><polygon class="cls-4" points="11.57 10.74 20.4 22.08 20.4 22.08 20.4 10.74 11.57 10.74"/><polygon class="cls-4" points="8.38 14.83 17.21 26.17 17.21 26.17 8.38 26.17 8.38 14.83"/><polygon class="cls-4" points="36.73 51.24 27.91 39.9 27.91 39.9 27.91 51.24 36.73 51.24"/><polygon class="cls-4" points="39.92 47.15 31.09 35.81 31.09 35.81 39.92 35.81 39.92 47.15"/><polygon class="cls-4" points="36.73 10.74 27.91 22.08 27.91 22.08 27.91 10.74 36.73 10.74"/><polygon class="cls-4" points="39.92 14.83 31.09 26.17 31.09 26.17 39.92 26.17 39.92 14.83"/></g><polygon class="cls-4" points="53.13 31.95 51.65 33.86 49.33 30.89 50.81 28.98 52.39 31 53.13 31.95"/><polygon class="cls-3" points="54.32 30.43 53.43 31.57 51.11 28.6 52 27.45 54.32 30.43"/><path class="cls-2" d="M56.88,31.05c-.3.38.28.36-.3.38l-2.31-3,.29-.38Z" transform="translate(-2.26 -1)"/><g class="cls-6"><polygon class="cls-4" points="39.51 45 42.47 43.74 42.47 43.74 40.49 46.27 39.51 45"/><path class="cls-2" d="M42.27,44.09c-.43.3-1.12,1.14-1,1.28l.5.64,3-1.27-2,2.54,1.48,1.9,2-2.53-1,3.8.5.64c.33-.42.87-.59,1-1.28l1.36-5.23,1.6,2.05,1.48-1.91-1.6-2,4.08-1.75a1.83,1.83,0,0,0,1-1.28h0l-.5-.64-3,1.27,2-2.58-1.49-1.9-2,2.57,1-3.8c.14-.36-.42-1.14-.5-.64h0c-.33.42-.84.63-1,1.28l-1.36,5.23-1.49-1.91-1.48,1.91,1.49,1.91Z" transform="translate(-2.26 -1)"/><polygon class="cls-3" points="43.02 39.21 44.8 41.5 40.77 46.68 41.66 47.82 45.7 42.65 47.48 44.94 48.37 43.79 46.59 41.5 50.6 36.35 49.71 35.2 45.7 40.36 43.91 38.07 43.02 39.21"/><polygon class="cls-3" points="47.92 40.55 52.38 38.64 52.05 38.21 48.59 39.69 47.92 40.55"/><polygon class="cls-3" points="44.95 44.37 43.47 50.09 44.13 49.24 45.62 43.51 44.95 44.37"/><polygon class="cls-3" points="39.01 44.37 39.34 44.79 42.8 43.31 43.47 42.46 39.01 44.37"/><polygon class="cls-3" points="47.26 33.77 45.77 39.49 46.44 38.64 47.92 32.91 47.26 33.77"/><polygon class="cls-4" points="40.01 43.08 42.72 39.59 44.08 41.34 44.08 41.34 40.01 43.08"/><polygon class="cls-4" points="48.42 33.55 47.43 37.36 47.43 37.36 49.41 34.82 48.42 33.55"/><polygon class="cls-4" points="46.93 34.2 44.21 37.69 45.57 39.43 45.57 39.43 46.93 34.2"/><polygon class="cls-4" points="41.98 48.18 43.95 45.64 43.95 45.64 42.97 49.45 41.98 48.18"/><polygon class="cls-4" points="45.82 43.57 45.82 43.57 47.18 45.32 44.46 48.81 45.82 43.57"/><polygon class="cls-4" points="50.9 36.73 48.92 39.27 48.92 39.27 51.88 38 50.9 36.73"/><polygon class="cls-4" points="47.31 41.66 47.31 41.66 48.67 43.41 51.38 39.92 47.31 41.66"/></g><polygon class="cls-7" points="55.74 23.14 55.86 23.23 55.96 23.1 55.94 23.28 56.07 23.36 55.93 23.39 55.91 23.57 55.84 23.4 55.7 23.43 55.8 23.3 55.74 23.14"/><polygon class="cls-7" points="56.26 23.09 56.39 23.17 56.49 23.04 56.46 23.22 56.59 23.3 56.45 23.33 56.43 23.51 56.36 23.35 56.23 23.38 56.32 23.25 56.26 23.09"/><polygon class="cls-7" points="56.22 23.76 56.34 23.84 56.44 23.71 56.42 23.89 56.55 23.98 56.41 24 56.39 24.18 56.32 24.02 56.18 24.05 56.28 23.92 56.22 23.76"/><polygon class="cls-7" points="56.78 23.03 56.91 23.12 57.01 22.99 56.99 23.17 57.11 23.25 56.97 23.28 56.95 23.46 56.89 23.3 56.75 23.32 56.85 23.2 56.78 23.03"/><polygon class="cls-7" points="56.74 23.7 56.87 23.79 56.97 23.66 56.94 23.84 57.07 23.92 56.93 23.95 56.91 24.13 56.84 23.97 56.7 24 56.8 23.87 56.74 23.7"/><polygon class="cls-7" points="57.3 22.98 57.43 23.06 57.53 22.93 57.51 23.11 57.63 23.2 57.49 23.22 57.47 23.4 57.41 23.24 57.27 23.27 57.37 23.14 57.3 22.98"/><polygon class="cls-7" points="56.7 24.38 56.82 24.46 56.92 24.33 56.9 24.51 57.03 24.59 56.89 24.62 56.87 24.8 56.8 24.64 56.66 24.67 56.76 24.54 56.7 24.38"/><polygon class="cls-7" points="57.26 23.65 57.39 23.73 57.49 23.61 57.47 23.78 57.59 23.87 57.45 23.89 57.43 24.07 57.37 23.91 57.23 23.94 57.33 23.81 57.26 23.65"/><polygon class="cls-7" points="57.83 22.93 57.95 23.01 58.05 22.88 58.03 23.06 58.16 23.14 58.02 23.17 57.99 23.35 57.93 23.19 57.79 23.21 57.89 23.09 57.83 22.93"/><polygon class="cls-7" points="57.22 24.32 57.35 24.4 57.45 24.28 57.42 24.45 57.55 24.54 57.41 24.57 57.39 24.74 57.32 24.58 57.19 24.61 57.28 24.48 57.22 24.32"/><polygon class="cls-7" points="57.78 23.6 57.91 23.68 58.01 23.55 57.99 23.73 58.11 23.81 57.98 23.84 57.95 24.02 57.89 23.86 57.75 23.89 57.85 23.76 57.78 23.6"/><polygon class="cls-7" points="58.35 22.87 58.48 22.95 58.58 22.83 58.55 23 58.68 23.09 58.54 23.11 58.52 23.29 58.45 23.13 58.31 23.16 58.41 23.03 58.35 22.87"/><polygon class="cls-7" points="57.18 24.99 57.3 25.07 57.4 24.95 57.38 25.13 57.51 25.21 57.37 25.24 57.35 25.41 57.28 25.25 57.14 25.28 57.24 25.15 57.18 24.99"/><polygon class="cls-7" points="57.74 24.27 57.87 24.35 57.97 24.22 57.95 24.4 58.07 24.48 57.93 24.51 57.91 24.69 57.85 24.53 57.71 24.56 57.81 24.43 57.74 24.27"/><polygon class="cls-7" points="58.31 23.54 58.43 23.63 58.53 23.5 58.51 23.68 58.64 23.76 58.5 23.79 58.48 23.96 58.41 23.8 58.27 23.83 58.37 23.7 58.31 23.54"/><polygon class="cls-7" points="58.87 22.82 59 22.9 59.1 22.77 59.08 22.95 59.2 23.03 59.06 23.06 59.04 23.24 58.98 23.08 58.84 23.11 58.94 22.98 58.87 22.82"/><polygon class="cls-7" points="57.7 24.94 57.83 25.02 57.93 24.89 57.9 25.07 58.03 25.15 57.89 25.18 57.87 25.36 57.8 25.2 57.66 25.23 57.77 25.1 57.7 24.94"/><polygon class="cls-7" points="58.27 24.21 58.39 24.3 58.49 24.17 58.47 24.35 58.59 24.43 58.45 24.46 58.43 24.64 58.37 24.47 58.23 24.5 58.33 24.38 58.27 24.21"/><polygon class="cls-7" points="58.83 23.49 58.96 23.57 59.05 23.44 59.03 23.62 59.16 23.7 59.02 23.73 59 23.91 58.93 23.75 58.8 23.78 58.89 23.65 58.83 23.49"/><polygon class="cls-7" points="59.4 22.76 59.52 22.84 59.62 22.72 59.6 22.9 59.72 22.98 59.59 23.01 59.56 23.18 59.5 23.02 59.36 23.05 59.46 22.92 59.4 22.76"/><polygon class="cls-7" points="57.66 25.61 57.78 25.69 57.88 25.56 57.86 25.74 57.99 25.82 57.85 25.85 57.83 26.03 57.76 25.87 57.62 25.9 57.72 25.77 57.66 25.61"/><polygon class="cls-7" points="58.22 24.88 58.35 24.97 58.45 24.84 58.43 25.02 58.55 25.1 58.41 25.13 58.39 25.31 58.33 25.14 58.19 25.17 58.29 25.05 58.22 24.88"/><polygon class="cls-7" points="58.79 24.16 58.91 24.24 59.01 24.11 58.99 24.29 59.12 24.37 58.98 24.4 58.95 24.58 58.89 24.42 58.75 24.45 58.85 24.32 58.79 24.16"/><polygon class="cls-7" points="59.35 23.43 59.48 23.52 59.58 23.39 59.56 23.57 59.68 23.65 59.54 23.68 59.52 23.86 59.46 23.7 59.32 23.72 59.42 23.59 59.35 23.43"/><polygon class="cls-7" points="59.92 22.71 60.04 22.79 60.14 22.66 60.12 22.84 60.25 22.92 60.11 22.95 60.09 23.13 60.02 22.97 59.88 23 59.98 22.87 59.92 22.71"/></svg>